<svg width="101" height="100" viewBox="0 0 101 100" fill="none" xmlns="http://www.w3.org/2000/svg">
<path d="M9.42185 99.9974C8.57666 99.4706 8.32363 98.7065 8.4645 97.7494C9.1923 92.8153 10.3557 88.009 12.6696 83.5444C14.4356 80.1385 16.812 77.3403 20.4406 75.7808C20.678 75.6791 20.9232 75.2618 20.9232 74.9906C20.931 68.9769 22.0814 63.117 23.1692 57.2389C24.0275 52.5917 24.1605 47.8845 24.0379 43.0078C23.2579 43.0078 22.5223 43.0104 21.7866 43.0078C18.1085 43 14.4304 43.0808 10.7575 42.9478C8.39928 42.8644 6.03849 42.5488 3.70379 42.1811C2.36557 41.9699 1.08735 41.3466 0.719536 39.8601C0.330853 38.2902 0.99865 36.9863 2.14644 35.9405C4.32463 33.9533 7.03759 33.038 9.8001 32.2712C15.6538 30.6465 21.6562 30.0207 27.703 29.7416C28.0186 29.726 28.3369 29.739 28.7516 29.739C28.7516 27.079 28.7047 24.5181 28.7595 21.9572C28.9525 13.0774 32.9724 6.44299 40.8347 2.37733C53.6639 -4.25706 69.5738 3.66562 72.0963 17.8211C72.3128 19.0311 72.3259 20.2751 72.5085 21.4903C72.5606 21.832 72.8084 22.2518 73.0954 22.4292C74.6162 23.368 75.5031 24.6667 75.6101 26.4661C75.6805 27.6423 76.1449 27.9917 77.2874 28.1952C78.2161 28.3595 79.1761 28.6828 79.9717 29.1757C80.556 29.5382 81.0751 29.7208 81.7429 29.7573C85.8072 29.9711 89.8348 30.4066 93.6799 31.8618C96.7398 33.0223 99.3745 34.6731 100.608 37.9225C100.608 39.1586 100.608 40.3947 100.608 41.6309C100.548 41.7404 100.452 41.8421 100.434 41.9568C99.9119 45.2819 97.9685 47.4412 94.919 48.6929C92.6652 49.6161 90.2966 49.976 87.8836 50.0073C84.7298 50.049 81.5786 50.0125 78.4248 50.0099C78.0805 50.0099 77.7335 50.0099 77.1831 50.0099C77.4883 52.5317 77.6526 54.9309 78.0883 57.278C79.1761 63.1509 80.3082 69.0082 80.3212 75.0141C80.3212 75.2801 80.5821 75.6895 80.8221 75.7938C84.6542 77.4446 87.0593 80.4723 88.841 84.0816C90.9722 88.3976 92.0782 93.0188 92.7774 97.7546C92.9182 98.7143 92.6652 99.4732 91.8226 100C64.3566 99.9974 36.8879 99.9974 9.42185 99.9974ZM31.8637 28.1013C32.0959 28.13 32.2185 28.1586 32.3411 28.1586C43.0807 28.1613 53.8204 28.1665 64.56 28.156C65.6974 28.156 66.2061 27.6293 66.2426 26.4688C66.2895 24.9301 66.866 23.5714 68.1834 22.8543C69.3938 22.1945 69.5007 21.3782 69.2607 20.2542C69.1799 19.8761 69.2086 19.4745 69.146 19.0911C67.5469 9.13169 58.675 2.30692 48.6579 3.3292C41.0695 4.10113 34.7384 9.43942 32.6254 16.7649C31.5533 20.4681 31.9863 24.2469 31.8637 28.1013ZM81.9516 32.9754C81.4038 35.9588 79.9717 37.2809 77.1205 37.5339C76.1005 37.6252 75.6649 38.1337 75.6127 39.302C75.5031 41.7378 73.5519 43.7119 71.1911 43.7745C68.6816 43.8423 66.4904 41.9855 66.2556 39.5915C66.0756 37.766 65.8121 37.5287 63.9522 37.5287C52.923 37.5287 41.8938 37.5287 30.862 37.5287C29.1899 37.5287 28.7516 37.0827 28.7516 35.3824C28.7516 34.5557 28.7516 33.7264 28.7516 32.8763C23.6309 33.0327 18.7215 33.4709 13.8826 34.5297C10.9609 35.1686 8.06016 35.8831 5.42807 37.3592C4.81766 37.7034 4.3168 38.2432 3.76378 38.6944C3.80291 38.8483 3.84204 39.0021 3.87856 39.156C5.30286 39.3333 6.72455 39.6306 8.15407 39.6645C15.3721 39.8393 22.5953 39.9018 29.8133 40.0948C34.2662 40.2148 38.7217 40.5929 43.0207 41.8134C51.3213 44.1657 59.7211 45.9755 68.3529 46.3667C74.9762 46.6666 81.6125 46.7397 88.2462 46.8153C90.2548 46.8388 92.2478 46.4684 94.113 45.6C96.5494 44.4656 97.3607 42.4289 97.4859 39.9149C97.5981 37.6591 96.072 36.6472 94.4599 35.6641C94.1573 35.4789 93.8286 35.3277 93.5025 35.1868C89.8348 33.5986 85.9532 33.1449 81.9516 32.9754ZM31.8768 75.8382C31.8768 79.2284 31.8741 82.3161 31.8794 85.4038C31.882 86.9581 32.435 87.5057 34.0054 87.5057C45.0998 87.5083 56.1942 87.5083 67.2886 87.5057C68.7938 87.5057 69.3651 86.9398 69.3703 85.456C69.3781 82.5612 69.3729 79.6665 69.3703 76.7718C69.3703 76.5214 69.3338 76.2685 69.2999 75.8199C65.2513 75.5487 61.234 75.2644 57.2168 75.0219C55.7977 74.9358 55.3203 74.4925 55.3177 73.0452C55.3151 71.4935 55.3177 69.9392 55.3177 68.5648C52.1483 68.5648 49.0884 68.5648 45.9424 68.5648C45.9424 69.9444 45.945 71.4674 45.9424 72.993C45.9398 74.5055 45.4754 74.9332 43.9964 75.0245C39.9765 75.2697 35.9645 75.5591 31.8768 75.8382ZM25.6526 96.8106C42.3555 96.8106 58.9593 96.8106 75.5918 96.8106C75.8423 90.5387 77.5405 84.7492 80.7517 79.3301C78.1483 77.8958 75.3832 77.1786 72.4902 76.5762C72.4902 79.7526 72.498 82.8403 72.4876 85.928C72.4772 88.5984 70.4685 90.6221 67.8051 90.6247C56.3533 90.6326 44.9015 90.6326 33.4497 90.6247C30.789 90.6221 28.7673 88.5958 28.7569 85.9384C28.7464 83.1402 28.7569 80.3445 28.7516 77.5463C28.7516 77.2412 28.7229 76.9335 28.7047 76.5892C25.83 77.2021 23.0753 77.8932 20.4954 79.3405C23.704 84.7466 25.3944 90.5387 25.6526 96.8106ZM69.0964 49.7178C66.1043 49.4075 63.1853 49.1858 60.2923 48.779C57.402 48.3748 54.5169 47.8845 51.6683 47.256C47.1736 46.2676 42.7286 45.0576 38.2313 44.0901C36.1888 43.6493 34.0706 43.5633 31.9863 43.3155C30.6638 55.5725 38.2496 63.9359 47.8727 65.4119C58.0985 66.9793 67.5991 59.8833 69.0964 49.7178ZM27.1891 43.2216C27.1891 44.1657 27.1734 45.0393 27.1917 45.913C27.283 50.182 26.876 54.4094 26.19 58.6185C25.5587 62.4885 24.9248 66.3612 24.3666 70.2417C24.1709 71.5978 24.1892 72.9878 24.1057 74.4508C30.3012 72.6774 36.5305 72.1741 42.8147 71.8507C42.8147 70.5807 42.7677 69.4098 42.8329 68.2441C42.8721 67.54 42.5903 67.2661 41.9747 66.9741C33.4263 62.9058 28.9551 56.1619 28.7595 46.6562C28.736 45.527 28.7569 44.3978 28.7569 43.2216C28.2091 43.2216 27.763 43.2216 27.1891 43.2216ZM58.4324 71.8638C64.7948 72.1507 71.0059 72.7087 77.0553 74.4143C77.2353 66.0144 74.3214 58.136 74.0919 49.8795C73.4136 49.8795 72.9024 49.8795 72.5319 49.8795C71.8902 51.8693 71.4259 53.8695 70.6146 55.7211C68.3112 60.976 64.4452 64.7235 59.1941 67.0523C58.8811 67.1905 58.482 67.5765 58.4637 67.8685C58.3881 69.1594 58.4324 70.4608 58.4324 71.8638ZM17.9442 81.299C14.2113 85.9436 12.8339 91.2793 11.8452 96.7897C15.4634 96.7897 18.9459 96.7897 22.4492 96.7897C22.1936 91.2715 20.751 86.1914 17.9442 81.299ZM89.3236 96.8732C88.7966 92.0095 86.3237 84.2876 83.2272 81.4294C80.483 86.194 79.0352 91.2924 78.7952 96.7845C78.9569 96.8184 79.0795 96.868 79.2022 96.868C82.5464 96.8732 85.888 96.8732 89.3236 96.8732ZM78.7274 32.8267C78.7065 31.974 77.9239 31.3455 76.8101 31.2829C74.4154 31.1473 72.6337 29.3687 72.4954 26.9747C72.4302 25.8533 71.8067 25.0735 70.9563 25.0501C70.0277 25.024 69.4251 25.762 69.3677 26.9903C69.2581 29.3009 67.4321 31.1525 65.1339 31.2829C63.934 31.3507 63.1461 31.9661 63.1331 32.845C63.1201 33.7603 63.8922 34.2219 65.0896 34.454C66.0652 34.6418 67.0773 35.046 67.8808 35.625C68.9529 36.3943 69.3547 37.6174 69.386 38.9604C69.4094 39.9071 70.1659 40.6529 70.9511 40.6451C71.7807 40.6347 72.4172 39.9331 72.4928 38.9474C72.5215 38.5927 72.5163 38.2302 72.6024 37.8886C73.1111 35.844 74.7545 34.5192 76.8753 34.4123C78.0074 34.3523 78.7509 33.7186 78.7274 32.8267ZM31.9211 34.3601C41.3825 34.3601 50.7631 34.3601 60.081 34.3601C60.081 33.3248 60.081 32.3391 60.081 31.335C50.7266 31.335 41.346 31.335 31.9211 31.335C31.9211 32.3495 31.9211 33.3118 31.9211 34.3601Z" fill="#80B540"/>
<path d="M50.5805 6.28395C50.5805 7.36621 50.5805 8.32851 50.5805 9.39252C47.2311 9.53856 44.0877 10.2792 41.6669 12.814C39.28 15.3124 38.4061 18.4288 38.1088 21.8372C37.1175 21.8372 36.1314 21.8372 34.9941 21.8372C35.2236 17.8681 36.3297 14.2171 38.9279 11.1424C41.9304 7.58788 45.9502 6.32829 50.5805 6.28395Z" fill="#80B540"/>
<path d="M38.08 23.5297C38.08 24.5389 38.08 25.4986 38.08 26.5287C37.0913 26.5287 36.1079 26.5287 35.0618 26.5287C35.0618 25.5482 35.0618 24.565 35.0618 23.5297C36.0479 23.5297 37.0079 23.5297 38.08 23.5297Z" fill="#80B540"/>
<path d="M50.6953 51.5877C52.6804 51.5877 54.6656 51.5799 56.6481 51.5903C57.8768 51.5955 58.4246 52.1588 58.4298 53.3793C58.4429 57.0851 55.336 60.5066 51.5718 60.9317C47.6511 61.3724 43.9338 58.8193 43.0286 55.0666C42.9816 54.8762 42.9347 54.6885 42.906 54.4955C42.6399 52.8082 42.6895 51.4312 45.2329 51.5695C47.0485 51.6686 48.8745 51.5877 50.6953 51.5877ZM46.3494 54.751C46.8085 56.6078 48.9423 57.9013 50.797 57.8231C52.7196 57.7423 54.423 56.4514 54.8639 54.751C52.0387 54.751 49.224 54.751 46.3494 54.751Z" fill="#80B540"/>
<path d="M69.4459 31.322C70.4476 31.322 71.4076 31.322 72.4302 31.322C72.4302 32.339 72.4302 33.3196 72.4302 34.3575C71.4467 34.3575 70.4868 34.3575 69.4459 34.3575C69.4459 33.3926 69.4459 32.4094 69.4459 31.322Z" fill="#80B540"/>
</svg>
