<svg width="101" height="100" viewBox="0 0 101 100" fill="none" xmlns="http://www.w3.org/2000/svg">
<path d="M35.016 99.9843C34.7497 99.8774 34.4887 99.76 34.2198 99.6634C31.7349 98.7868 30.1478 96.5612 30.1217 93.9494C30.033 84.6088 31.4712 75.5029 34.4234 66.6449C36.3211 60.957 36.7544 55.123 36.0836 49.2186C35.7051 45.8737 35.0421 42.5601 34.4182 39.2465C34.2486 38.3385 33.7657 37.4879 33.4159 36.6165C32.9434 35.4398 33.5803 34.4066 34.8489 34.3726C36.0836 34.3387 37.3182 34.3648 38.4955 34.3648C37.4905 33.3968 36.4777 32.4262 35.3736 31.3617C34.1259 32.6089 32.672 34.0413 31.2546 35.5076C31.1371 35.6276 31.1789 35.9929 31.2624 36.199C32.5649 39.4265 30.9805 43.4733 27.0207 44.5874C24.9116 45.1796 22.8051 45.3884 20.649 45.2814C19.7929 45.2397 19.2264 44.71 19.1847 43.8568C19.075 41.6417 19.1768 39.4343 19.8894 37.3053C21.1215 33.6317 24.5566 31.9488 28.2267 33.1907C28.4799 33.2768 28.9106 33.2872 29.0698 33.1333C30.508 31.774 31.9045 30.3702 33.3454 28.9483C33.0504 28.6273 32.8338 28.3951 32.5493 28.0873C32.3483 28.3377 32.1786 28.5517 32.0063 28.7656C30.4793 30.6886 28.4616 31.5391 26.0575 31.1843C23.6978 30.8347 21.9986 29.4779 21.1346 27.2236C20.9179 26.6575 20.6386 26.3574 20.0617 26.1487C17.548 25.2303 16.008 22.9551 16.0132 20.2886C16.0184 17.6273 17.5663 15.3756 20.0957 14.452C20.6282 14.2563 20.9153 13.9849 21.1111 13.4475C22.0351 10.9192 24.2904 9.36939 26.9528 9.36156C29.6754 9.35634 31.8941 10.9088 32.9017 13.4683C33.0348 13.8023 33.335 14.1937 33.6508 14.3163C36.0183 15.2164 37.5297 16.8706 37.8977 19.3545C38.2762 21.9115 37.3365 24.0144 35.1883 25.5277C35.0838 25.6008 34.9925 25.6921 34.8985 25.7808C34.8776 25.8017 34.8698 25.8382 34.8672 25.8434C35.893 26.8531 36.911 27.855 38.0622 28.9874C38.6051 28.3221 39.1768 27.6228 39.7876 26.874C40.6281 27.8211 41.2885 28.5647 42.0689 29.4388C41.5208 29.8562 40.803 30.4068 39.9781 31.0382C41.2075 32.2566 42.1864 33.2429 43.1861 34.203C43.3062 34.3178 43.5359 34.3622 43.716 34.3648C44.8854 34.3779 46.0548 34.3726 47.3443 34.3726C47.3443 33.0863 47.373 31.8601 47.3208 30.6364C47.3104 30.3676 47.0389 30.0754 46.8249 29.8589C45.5928 28.6091 44.3399 27.3802 43.1209 26.1695C43.8883 25.379 44.5878 24.6615 45.3996 23.8292C45.9556 24.5101 46.4907 25.165 47.0232 25.8199C47.1041 25.7704 47.1825 25.7208 47.2634 25.6712C47.2634 24.3693 47.2634 23.0673 47.2634 21.7079C45.1021 21.0009 43.562 19.5893 42.839 17.335C42.7815 17.1524 42.4866 17.0037 42.2725 16.9176C39.4769 15.8165 37.9421 13.7058 37.9421 10.9375C37.9421 8.16397 39.4822 6.0558 42.2647 4.94431C42.5388 4.83473 42.8181 4.53728 42.9277 4.26071C44.011 1.51591 46.1384 -0.00520487 48.9601 1.33817e-05C51.7008 0.00262251 53.823 1.54462 54.8984 4.2555C55.0159 4.55294 55.3448 4.86342 55.6476 4.98083C58.3231 6.02709 59.8867 8.19006 59.8867 10.9296C59.8867 13.6718 58.3335 15.8426 55.6502 16.8732C55.4022 16.9672 55.0603 17.1237 54.9924 17.3272C54.2615 19.5737 52.7371 21.0009 50.5079 21.721C50.5079 25.9191 50.5079 30.078 50.5079 34.3648C51.7922 34.3648 53.0504 34.3726 54.3085 34.3544C54.4495 34.3518 54.6113 34.2422 54.7209 34.1378C55.6815 33.2142 56.629 32.2827 57.6836 31.2547C56.3941 30.0545 55.1856 28.9326 53.9561 27.7872C54.8253 26.934 55.5406 26.2348 56.2636 25.5277C57.3938 26.6809 58.5319 27.8394 59.5578 28.883C61.7608 26.6992 63.8491 24.6302 65.9529 22.5455C64.7104 21.7497 63.6768 20.5364 63.2147 18.8953C62.322 15.7174 63.9613 12.4795 67.0858 11.3262C67.6183 11.1279 67.9028 10.8566 68.0986 10.3191C69.0252 7.79347 71.2805 6.24365 73.943 6.23844C76.6629 6.23322 78.8738 7.79086 79.8944 10.3452C80.0458 10.7235 80.4426 11.1227 80.8184 11.2714C83.3817 12.289 84.9479 14.4937 84.9427 17.2046C84.9401 19.905 83.3765 22.0915 80.7767 23.1012C80.466 23.2212 80.098 23.4978 79.9857 23.79C79.0774 26.193 77.3911 27.7115 74.8592 28.0664C72.2881 28.4238 70.2024 27.4402 68.6989 25.2981C68.6285 25.1963 68.5293 25.1129 68.4431 25.0215C67.66 25.7964 66.9031 26.5479 66.1383 27.3045C67.1902 28.2856 68.2317 29.2535 69.3724 30.3155C72.4107 29.0292 75.4073 29.5588 78.0959 31.8574C79.3149 32.9011 80.0745 34.2709 80.5731 35.7711C81.4188 38.3203 81.8051 40.9476 81.7973 43.6324C81.7947 44.6943 81.223 45.2997 80.1946 45.3049C77.4381 45.3231 74.7469 44.9135 72.1262 44.0499C67.2528 42.4453 64.7809 37.2479 66.8248 32.7863C65.7963 31.7609 64.7861 30.7538 63.8386 29.8093C62.3612 31.286 60.8472 32.7993 59.268 34.3779C60.2834 34.3779 61.3588 34.3779 62.4343 34.3779C64.3319 34.3805 64.914 35.158 64.3607 36.9635C63.066 41.1903 61.8287 45.4458 61.599 49.8787C61.4867 52.0208 61.813 54.1837 61.954 56.6076C62.4343 56.2449 62.6327 56.1067 62.818 55.9553C63.836 55.1256 64.9662 54.6612 66.3131 54.6795C68.8895 54.7134 71.4684 54.6821 74.0448 54.6899C76.7203 54.6977 78.6676 56.6363 78.6702 59.3081C78.6754 66.598 78.678 73.8905 78.6702 81.1804C78.6676 83.9147 76.6577 85.9212 73.9273 85.9342C71.7791 85.942 69.6308 85.9368 67.4199 85.9368C67.5165 88.1754 67.5556 90.341 67.7122 92.4988C67.9837 96.1881 66.6342 98.7659 62.8128 100C53.5489 99.9843 44.2824 99.9843 35.016 99.9843ZM38.7878 43.789C38.9862 46.1033 39.1924 48.3628 39.3751 50.6249C39.7693 55.4883 39.5787 60.3256 38.164 65.0168C36.1932 71.5501 34.3608 78.1042 33.7291 84.9297C33.5568 86.7926 33.4498 88.6607 33.3115 90.5524C43.7526 90.5524 54.0449 90.5524 64.4886 90.5524C64.3319 88.452 64.1884 86.4169 64.0239 84.3844C63.4366 77.0866 62.155 69.9063 60.3696 62.8095C59.208 58.1835 57.8924 53.5706 58.5215 48.7098C58.7329 47.0739 58.9678 45.4406 59.1949 43.7864C52.3873 43.789 45.5824 43.789 38.7878 43.789ZM33.2906 93.7746C33.3846 95.7106 34.5435 96.8456 36.4177 96.856C39.8398 96.8717 43.2644 96.8612 46.6865 96.8612C51.5756 96.8612 56.4672 96.869 61.3562 96.8586C63.2957 96.8534 64.4912 95.6897 64.5303 93.7772C54.1388 93.7746 43.7473 93.7746 33.2906 93.7746ZM67.1458 82.798C69.3045 82.798 71.3875 82.8032 73.4705 82.7954C74.9662 82.7902 75.5405 82.224 75.5405 80.7316C75.5457 73.7078 75.5457 66.6814 75.5405 59.6577C75.5405 58.2983 75.021 57.8026 73.6297 57.7974C71.5102 57.7922 69.3907 57.7948 67.2737 57.7948C65.1229 57.7948 63.8856 58.7523 63.2905 60.9231C66.2348 60.9231 69.1636 60.9205 72.0897 60.9257C73.4496 60.9283 73.9717 61.4502 73.9717 62.8147C73.9743 68.3095 73.9743 73.807 73.9717 79.3018C73.9717 80.7186 73.4575 81.2273 72.0322 81.2326C70.346 81.2378 68.6572 81.2326 66.9187 81.2326C66.9996 81.7909 67.0649 82.2397 67.1458 82.798ZM64.084 64.0828C64.961 68.8027 65.8172 73.4156 66.676 78.0468C68.0177 78.0468 69.3985 78.0468 70.7689 78.0468C70.7689 73.3504 70.7689 68.7192 70.7689 64.0828C68.4849 64.0828 66.2714 64.0828 64.084 64.0828ZM37.2817 37.5219C37.4957 38.2889 37.7646 38.9882 37.8716 39.7109C37.9812 40.4519 38.3154 40.6319 39.0332 40.6293C45.7207 40.6032 52.4108 40.6137 59.0984 40.6111C59.3855 40.6111 59.6726 40.5798 59.9754 40.5641C60.2651 39.5283 60.5418 38.542 60.8264 37.5219C52.9564 37.5219 45.1647 37.5219 37.2817 37.5219ZM48.9574 18.7309C50.5158 18.7022 51.8 17.502 52.035 15.8557C52.2359 14.4337 52.45 14.2171 53.823 14.0371C55.5197 13.8127 56.7543 12.4873 56.7439 10.9062C56.7334 9.31198 55.5014 8.02308 53.7891 7.80913C52.4865 7.64736 52.2098 7.36819 52.0402 6.05319C51.8209 4.35204 50.5132 3.12053 48.9235 3.11792C47.3182 3.11531 46.0183 4.32855 45.799 6.04014C45.6267 7.36558 45.3474 7.65258 44.0632 7.80913C42.3352 8.02047 41.1188 9.28328 41.0953 10.8905C41.0718 12.469 42.3065 13.8075 43.9979 14.0371C45.3944 14.2276 45.6111 14.4415 45.8016 15.8426C46.0261 17.5229 47.3808 18.7596 48.9574 18.7309ZM73.943 9.36677C72.3298 9.38765 71.0638 10.5983 70.8498 12.3229C70.6906 13.6092 70.4061 13.8884 69.0826 14.0606C67.3677 14.2798 66.1487 15.5765 66.1487 17.1733C66.1487 18.7622 67.3807 20.0668 69.0879 20.2886C70.4113 20.4608 70.6906 20.7347 70.8524 22.0289C71.0638 23.7326 72.3585 24.9667 73.9534 24.9824C75.5352 24.9981 76.8665 23.7639 77.0962 22.0732C77.2815 20.6982 77.4982 20.4843 78.9155 20.286C80.6018 20.0485 81.8364 18.6944 81.7999 17.1237C81.7634 15.5608 80.5626 14.2928 78.9077 14.0658C77.5034 13.8727 77.2815 13.6536 77.0936 12.2707C76.8639 10.58 75.5274 9.3459 73.943 9.36677ZM34.815 20.346C34.8489 18.6944 33.5777 17.3872 31.727 17.1785C30.6516 17.0559 30.2418 16.6515 30.1191 15.5922C29.9051 13.7345 28.6182 12.4742 26.9581 12.4951C25.3084 12.516 24.0659 13.7423 23.8597 15.5478C23.7318 16.6749 23.3533 17.048 22.1943 17.1811C20.4011 17.3898 19.1612 18.6631 19.1612 20.299C19.1612 21.9245 20.4115 23.2134 22.1969 23.4221C23.3559 23.5578 23.7292 23.9231 23.8597 25.0581C24.0659 26.8479 25.3319 28.0925 26.9659 28.1107C28.5869 28.1264 29.9051 26.8688 30.1139 25.105C30.2575 23.897 30.589 23.5735 31.8288 23.4221C33.5516 23.2056 34.7811 21.9428 34.815 20.346ZM71.8704 32.8802C73.9952 35.0354 76.1017 37.167 78.1768 39.27C77.4929 34.8266 75.1306 32.4262 71.8704 32.8802ZM75.5666 41.6364C73.5749 39.6639 71.4502 37.5584 69.3959 35.5233C68.9547 39.0639 71.5415 40.9659 75.5666 41.6364ZM22.7581 39.1317C23.7657 38.1507 24.8907 37.0548 25.974 36.0007C24.1494 35.9146 22.9905 37.0783 22.7581 39.1317ZM28.5164 38.5264C27.4305 39.6118 26.3264 40.7154 25.324 41.7173C27.3574 41.5138 28.5973 40.2223 28.5164 38.5264Z" fill="#80B540"/>
<path d="M48.9209 6.24101C51.5468 6.24362 53.6063 8.30222 53.6116 10.9348C53.6168 13.5492 51.5364 15.6208 48.9131 15.613C46.2819 15.6026 44.2198 13.5387 44.2198 10.9192C44.2224 8.30483 46.2976 6.2384 48.9209 6.24101ZM48.9522 9.37457C48.1509 9.34848 47.3678 10.1051 47.36 10.9139C47.3521 11.6758 48.0569 12.4246 48.8295 12.4768C49.6205 12.5316 50.4323 11.7932 50.4714 10.987C50.508 10.1886 49.764 9.40066 48.9522 9.37457Z" fill="#80B540"/>
<path d="M78.6728 17.1915C78.6754 19.7641 76.6185 21.8462 74.0604 21.8592C71.364 21.8749 69.2758 19.8215 69.2784 17.1576C69.281 14.5459 71.3614 12.4846 73.99 12.4872C76.6133 12.4951 78.6702 14.5589 78.6728 17.1915ZM75.53 17.1445C75.5091 16.3331 74.7208 15.5895 73.9195 15.6234C73.1103 15.6573 72.369 16.4609 72.4186 17.2515C72.4682 18.0238 73.2147 18.7283 73.9795 18.7257C74.7887 18.7231 75.5509 17.9455 75.53 17.1445Z" fill="#80B540"/>
<path d="M31.6879 20.3459C31.6826 22.9081 29.6127 24.9797 27.0468 24.985C24.3582 24.9928 22.283 22.9264 22.2935 20.2546C22.3039 17.6507 24.3948 15.6025 27.0337 15.6156C29.6466 15.626 31.6905 17.7055 31.6879 20.3459ZM26.9659 21.8514C27.7725 21.8644 28.5477 21.1 28.5425 20.2964C28.5399 19.4875 27.7646 18.7309 26.9607 18.7465C26.1906 18.7622 25.4598 19.4797 25.4336 20.252C25.4023 21.053 26.1567 21.8383 26.9659 21.8514Z" fill="#80B540"/>
</svg>
