<svg width="101" height="100" viewBox="0 0 101 100" fill="none" xmlns="http://www.w3.org/2000/svg">
<path d="M28.1622 97.9086C26.4004 97.473 24.6935 96.9201 23.2454 95.7621C20.655 93.6939 19.2461 91.0206 19.1756 87.7083C19.1207 85.0585 19.1599 82.4086 19.1625 79.7562C19.1625 77.7949 19.8892 77.0672 21.8888 77.0594C25.1092 77.049 28.3269 77.0464 31.5472 77.0594C35.327 77.0751 39.1093 77.0959 42.889 77.1455C44.5515 77.1663 46.0545 77.7558 47.4686 78.593C47.7274 78.7469 47.9888 78.8981 48.339 79.1068C48.339 72.404 48.339 65.8159 48.339 59.1965C47.134 59.5278 45.9604 59.9216 44.7554 60.1667C36.4117 61.8646 28.1152 55.5191 27.5976 47.0219C27.5218 45.7935 27.6682 44.5442 27.7858 43.3106C27.8407 42.7342 27.7126 42.4264 27.1794 42.1369C21.732 39.1793 19.071 34.5682 19.1808 28.4027C19.2958 21.8928 24.772 15.7716 31.2545 14.8353C32.023 14.7232 32.8045 14.658 33.5809 14.6215C34.3546 14.5849 35.1335 14.6136 35.9831 14.6136C36.6757 10.5606 38.6414 7.20923 42.0656 4.77327C44.92 2.74155 48.1273 1.87306 51.6091 2.13387C57.6237 2.58507 63.6435 6.9093 64.9897 14.6293C65.8784 14.6293 66.775 14.6006 67.669 14.6345C74.4077 14.8953 79.842 19.3578 81.4313 25.9198C82.9264 32.0853 79.8786 38.955 74.2717 41.8683C73.3255 42.3586 73.1216 42.8124 73.2941 43.8661C74.4599 50.9054 69.6137 58.1533 62.6921 59.9268C59.4639 60.7536 56.3272 60.5606 53.248 59.3191C53.0807 59.2513 52.9056 59.207 52.6442 59.1235C52.6442 65.782 52.6442 72.37 52.6442 79.0468C52.8533 78.9477 53.0755 78.8747 53.2584 78.7495C55.1117 77.5028 57.1872 77.062 59.3829 77.062C65.9464 77.062 72.5126 77.0568 79.0761 77.0646C81.0758 77.0672 81.8024 77.8001 81.8024 79.7614C81.8051 82.3173 81.8103 84.8759 81.7998 87.4318C81.7789 92.5854 78.3076 96.7532 73.2314 97.7443C73.0824 97.773 72.9439 97.8564 72.8001 97.9112C57.9217 97.9086 43.0406 97.9086 28.1622 97.9086ZM23.3657 81.2532C23.3657 82.9042 23.3421 84.456 23.3735 86.0052C23.3944 86.9963 23.3526 88.0239 23.5905 88.9706C24.3433 91.9778 26.6958 93.7043 30.0286 93.7226C35.8994 93.7565 41.7729 93.733 47.6437 93.7278C47.879 93.7278 48.1143 93.6704 48.3809 93.6365C48.3809 91.5396 48.4907 89.5079 48.3573 87.4944C48.1012 83.5901 45.5239 81.2663 41.6082 81.2532C39.7968 81.248 37.9853 81.2532 36.1739 81.2532C31.9655 81.2532 27.7492 81.2532 23.3657 81.2532ZM77.6907 81.3263C77.3562 81.2845 77.2333 81.2558 77.1131 81.2558C71.054 81.2532 64.9949 81.2193 58.9359 81.2689C55.8854 81.295 53.3342 83.2432 52.8141 86.06C52.5135 87.6953 52.6259 89.4062 52.5736 91.0858C52.5475 91.9412 52.5684 92.7993 52.5684 93.6287C52.8062 93.6834 52.8951 93.7226 52.984 93.7226C59.043 93.7278 65.1021 93.7852 71.1612 93.7069C74.3998 93.6652 76.7759 91.9751 77.3065 89.0123C77.7535 86.5086 77.5862 83.8926 77.6907 81.3263ZM42.097 35.4602C41.9898 35.2724 41.9323 35.1655 41.8696 35.0612C40.4816 32.7921 39.721 30.3874 40.1313 27.6854C40.1862 27.3255 39.9797 26.8222 39.7236 26.5379C37.9539 24.5688 36.7881 22.3127 36.1974 19.7359C36.1268 19.423 35.6851 19.0265 35.3609 18.9666C29.0771 17.8373 22.2913 23.1578 23.546 30.8882C24.2492 35.2255 26.965 38.1439 31.2754 39.2211C35.5884 40.2982 39.1825 38.8742 42.097 35.4602ZM77.5679 29.3207C77.8711 23.0587 71.7571 17.7903 65.523 18.9744C65.225 19.0318 64.8329 19.4256 64.7675 19.7255C64.182 22.3414 62.9874 24.6183 61.1865 26.6005C60.9643 26.8456 60.7735 27.2786 60.8231 27.5837C61.2492 30.2779 60.5225 32.6904 59.1659 34.9855C59.0457 35.189 59.0901 35.6532 59.2443 35.8358C61.6988 38.7177 64.8773 39.9592 68.5891 39.461C73.7228 38.7699 77.4842 34.5134 77.5679 29.3207ZM31.6988 43.647C31.7982 45.2484 31.691 46.7376 32.0073 48.1303C33.5207 54.781 40.6829 58.0959 46.8204 55.0679C52.3305 52.3503 54.2387 45.3501 50.8432 40.2434C50.6576 39.9644 50.3335 39.6827 50.0224 39.6019C48.4436 39.1872 46.8465 38.8377 45.0926 38.4256C41.7938 42.2986 37.3946 44.1817 31.6988 43.647ZM42.1493 22.8109C46.4989 17.4643 54.3484 17.3574 58.7895 22.7692C61.9262 18.9066 61.474 12.8923 57.7753 9.28007C53.9224 5.51918 47.845 5.30271 43.7307 8.77931C39.5955 12.2794 38.908 18.1867 42.1493 22.8109ZM53.7107 54.7836C57.1532 56.964 61.8818 56.6302 65.2877 53.9803C68.4296 51.5339 70.0215 46.9984 68.8923 43.6783C63.5181 44.1843 59.1345 42.2621 55.6528 38.1804C55.3679 38.363 55.1379 38.5091 54.8895 38.6682C57.723 44.3017 57.3492 49.6691 53.7107 54.7836ZM50.4406 22.9856C46.9197 23.0222 44.23 25.7998 44.2718 29.3546C44.311 32.6408 47.2046 35.4367 50.5217 35.395C53.9668 35.3507 56.7376 32.5183 56.6905 29.086C56.6461 25.6772 53.8518 22.9517 50.4406 22.9856Z" fill="#80B540"/>
</svg>
