<?xml version="1.0" encoding="UTF-8" standalone="no"?>
<svg
   xmlns:dc="http://purl.org/dc/elements/1.1/"
   xmlns:cc="http://creativecommons.org/ns#"
   xmlns:rdf="http://www.w3.org/1999/02/22-rdf-syntax-ns#"
   xmlns:svg="http://www.w3.org/2000/svg"
   xmlns="http://www.w3.org/2000/svg"
   viewBox="0 0 617.79999 334.26666"
   height="334.26666"
   width="617.79999"
   xml:space="preserve"
   id="svg2"
   version="1.1"><metadata
     id="metadata8"><rdf:RDF><cc:Work
         rdf:about=""><dc:format>image/svg+xml</dc:format><dc:type
           rdf:resource="http://purl.org/dc/dcmitype/StillImage" /></cc:Work></rdf:RDF></metadata><defs
     id="defs6" /><g
     transform="matrix(1.3333333,0,0,-1.3333333,0,334.26667)"
     id="g10"><g
       transform="scale(0.1)"
       id="g12"><path
         id="path14"
         style="fill:#231f20;fill-opacity:1;fill-rule:nonzero;stroke:none"
         d="m 1684.87,2368.99 -5.7,2.1 -1.8,-4.2 c -2.4,-5.69 -10.8,-22.19 -18.3,-22.19 -5.99,0 -6.31,6.29 -6.31,8.69 0,17.7 17.11,72.91 21.31,85.8 l 5.71,17.69 h -34.2 l -48.01,-78.29 -10.8,78.29 h -59.69 l -2.4,-7.79 h 8.09 c 3.9,0 21.61,0 15.31,-22.21 l -14.11,-49.49 c -2.99,-10.8 -8.1,-30 -17.4,-30 -4.49,0 -5.39,3.6 -7.19,6.6 -2.71,4.81 -6.91,6.9 -13.2,6.9 -10.8,0 -16.21,-8.4 -16.21,-16.19 0,-8.4 6.01,-19.2 21.6,-19.2 24.9,0 33.61,21.6 42,50.39 l 14.11,48.6 h 0.89 l 11.11,-96 h 8.99 l 58.2,97.2 h 0.9 l -9.6,-35.4 c -5.99,-21.9 -8.39,-31.49 -8.39,-39.89 0,-18.61 10.19,-24.9 21.28,-24.9 12.61,0 28.51,7.79 42.02,39.29 l 1.79,4.2" /><path
         id="path16"
         style="fill:#231f20;fill-opacity:1;fill-rule:nonzero;stroke:none"
         d="m 1788.97,2443.09 c 6.9,0 15.9,-5.41 15.9,-18.9 0,-23.4 -19.2,-81.29 -45.6,-81.29 -7.2,0 -14.7,6.29 -14.7,20.1 0,24.29 19.5,80.09 44.4,80.09 z m -42.9,-117.59 c 17.1,0 35.1,11.39 45.31,30.59 h 0.58 c -0.9,-4.5 -0.9,-9.6 -0.9,-13.5 0,-12 10.51,-17.09 19.81,-17.09 11.41,0 28.2,7.19 43.8,38.69 l 2.1,4.2 -6.6,3 -1.51,-3 c -2.09,-4.5 -11.7,-22.5 -20.69,-22.5 -2.1,0 -5.69,1.8 -5.69,8.1 0,4.81 1.49,15.61 24.89,93 l 3,9.89 h -31.8 l -6.6,-18.88 c -3.3,12.59 -13.5,21.89 -29.4,21.89 -35.09,0 -73.49,-42.6 -73.49,-91.8 0,-31.2 19.79,-42.59 37.19,-42.59" /><path
         id="path18"
         style="fill:#231f20;fill-opacity:1;fill-rule:nonzero;stroke:none"
         d="m 1924.87,2325.5 c 32.7,0 49.5,24 56.1,33.59 l 3.89,5.7 -7.19,5.1 c -4.51,-7.5 -19.51,-28.8 -38.71,-28.8 -7.8,0 -21.89,3.3 -21.89,26.7 0,26.7 16.8,83.7 42,83.7 5.39,0 8.1,-3.01 8.1,-5.99 0,-3.01 -3,-5.71 -4.8,-9.91 -0.91,-1.79 -1.5,-3.9 -1.5,-6 0,-8.4 7.2,-14.41 17.09,-14.41 12.3,0 17.7,10.21 17.7,18.91 0,14.1 -14.09,25.8 -37.8,25.8 -46.19,0 -77.99,-47.1 -77.99,-85.8 0,-27.3 15.9,-48.59 45,-48.59" /><path
         id="path20"
         style="fill:#231f20;fill-opacity:1;fill-rule:nonzero;stroke:none"
         d="m 2016.67,2415.18 c 4.2,8.71 11.7,24.61 19.49,24.61 5.11,0 5.41,-5.99 5.41,-8.4 0,-10.5 -3.01,-24 -12.3,-55.19 l -14.1,-47.71 h 31.79 l 14.41,43.8 c 19.5,58.8 35.99,68.4 44.4,68.4 4.8,0 6.9,-3.6 6.9,-9.3 0,-7.8 -3.61,-16.79 -5.1,-21.9 l -24.3,-81 h 31.8 l 15.29,46.21 c 4.5,13.49 21.31,56.99 38.7,65.09 1.5,0.6 3,1.19 4.8,1.19 2.7,0 5.7,-1.19 7.2,-4.79 0.6,-1.81 0.6,-3.6 0.6,-5.4 0,-16.19 -12.29,-34.2 -21.59,-67.2 -1.51,-5.1 -2.4,-10.2 -2.4,-15.59 0,-14.11 8.99,-22.5 23.09,-22.5 17.39,0 28.5,13.49 36,24.59 2.7,3.9 5.1,8.1 7.2,12.3 l 2.1,4.2 -6,3.6 -1.8,-2.99 c -12,-20.1 -17.7,-21.9 -20.4,-21.9 -0.9,0 -2.1,0.29 -3,0.9 -0.9,0.59 -1.5,1.49 -1.8,2.39 -0.6,1.2 -0.6,2.71 -0.6,3.9 0,5.41 1.5,13.5 10.5,37.8 3.91,10.21 8.4,20.69 11.1,32.1 1.2,4.49 1.8,9.3 1.8,14.1 0,3.9 -0.9,23.4 -23.1,23.4 -21.6,0 -41.7,-17.1 -52.2,-39.9 h -0.9 c 1.5,6.89 2.4,9.9 2.7,12.3 0.31,2.41 0.6,4.5 0.6,6.9 0,16.2 -12.6,20.7 -21.6,20.7 -6.29,0 -12.6,-2.1 -18.29,-5.4 -12.9,-7.5 -24.6,-22.8 -30.9,-34.5 h -0.91 c 2.4,8.4 2.4,15.3 2.4,18.3 0,16.8 -10.19,21.6 -18.89,21.6 -19.2,0 -31.5,-18.3 -36.3,-26.09 -3.6,-5.71 -6.6,-11.12 -9.01,-17.41 l 6.31,-3 0.9,1.79" /><path
         id="path22"
         style="fill:#231f20;fill-opacity:1;fill-rule:nonzero;stroke:none"
         d="m 2328.66,2451.19 c 6.31,0 11.11,-5.4 11.11,-13.51 0,-17.09 -18.3,-37.49 -48.61,-46.49 10.8,47.1 26.11,60 37.5,60 z m -33.89,-125.69 c 27.89,0 48.59,20.7 60,38.69 l -7.81,6 -2.7,-3.6 c -5.09,-6.89 -20.7,-24.59 -38.1,-24.59 -10.2,0 -19.79,7.5 -19.79,20.69 0,4.51 0.59,12.9 2.09,18.9 l 6,1.5 c 50.7,12.6 73.2,33.6 73.2,51.9 0,13.49 -12.6,24.9 -37.79,24.9 -52.5,0 -81,-53.4 -81,-90 0,-32.4 24.01,-44.39 45.9,-44.39" /><path
         id="path24"
         style="fill:#231f20;fill-opacity:1;fill-rule:nonzero;stroke:none"
         d="m 2480.16,2443.39 c 6.6,0 16.79,-3.9 16.79,-19.5 0,-26.69 -17.69,-82.2 -42.89,-82.2 -7.2,0 -15.31,4.2 -15.31,20.41 0,33.59 19.8,81.29 41.41,81.29 z m -116.41,-187.5 -5.68,-0.59 -2.4,-8.7 35.38,0.6 39.3,-0.6 2.4,8.7 -7.5,0.59 c -10.8,0.9 -11.99,8.71 -11.99,12.61 0,4.79 0.9,8.4 2.7,15.59 l 15.9,60.3 c 2.69,-5.69 10.8,-18.89 30,-18.89 39.59,0 69.9,42.89 69.9,90.59 0,31.8 -17.7,43.8 -36.31,43.8 -19.49,0 -33.3,-11.7 -40.2,-20.1 l 16.51,62.09 -28.81,5.1 -8.69,-31.8 c -5.41,-20.09 -12.6,-26.39 -26.7,-37.79 -8.69,-6.89 -21,-16.5 -26.99,-36.3 l 8.39,-3.3 c 6.61,19.2 16.49,27.9 34.5,36.3 l -39.91,-148.5 c -4.19,-15.29 -6.88,-28.2 -19.8,-29.7" /><path
         id="path26"
         style="fill:#231f20;fill-opacity:1;fill-rule:nonzero;stroke:none"
         d="m 2605.25,2325.5 c 32.7,0 49.52,24 56.1,33.59 l 3.9,5.7 -7.2,5.1 c -4.5,-7.5 -19.5,-28.8 -38.69,-28.8 -7.8,0 -21.9,3.3 -21.9,26.7 0,26.7 16.8,83.7 41.99,83.7 5.41,0 8.11,-3.01 8.11,-5.99 0,-3.01 -3.01,-5.71 -4.81,-9.91 -0.89,-1.79 -1.5,-3.9 -1.5,-6 0,-8.4 7.21,-14.41 17.11,-14.41 12.3,0 17.69,10.21 17.69,18.91 0,14.1 -14.1,25.8 -37.79,25.8 -46.21,0 -78.01,-47.1 -78.01,-85.8 0,-27.3 15.9,-48.59 45,-48.59" /><path
         id="path28"
         style="fill:#231f20;fill-opacity:1;fill-rule:nonzero;stroke:none"
         d="m 2714.77,2440.69 c 4.19,0 4.78,-4.5 4.78,-8.1 0,-12.89 -4.2,-29.11 -10.19,-51 l -14.4,-53.1 h 31.8 l 16.79,62.7 h 4.52 c 5.39,0 8.39,-3.29 10.19,-15.6 l 2.4,-17.4 c 2.09,-15.9 5.1,-32.69 24.89,-32.69 22.81,0 32.11,17.4 39.31,39 l 1.19,3.59 -5.99,2.1 -2.11,-5.4 c -7.19,-18.3 -12.6,-22.2 -16.19,-22.2 -7.5,0 -9.01,18 -12.91,30.31 -2.39,7.19 -7.19,20.39 -22.8,22.79 v 0.9 c 8.7,2.7 12.31,7.21 17.11,16.2 7.5,14.41 10.79,27 18.6,27 5.1,0 4.8,-4.8 8.1,-8.1 2.09,-2.1 5.69,-3.9 11.39,-3.9 9.61,0 14.1,8.4 14.1,15 0,7.8 -4.8,17.1 -18.9,17.1 -28.5,0 -36,-30.6 -45.9,-46.5 -4.79,-7.8 -10.2,-12.89 -18.89,-12.89 h -5.7 l 2.11,7.5 c 2.09,6.89 4.2,20.39 4.2,29.09 0,17.7 -9.61,22.8 -19.2,22.8 -26.41,0 -41.12,-33.01 -45,-43.2 l 6.29,-2.7 c 4.8,10.8 12.3,26.7 20.41,26.7" /><path
         id="path30"
         style="fill:#231f20;fill-opacity:1;fill-rule:nonzero;stroke:none"
         d="m 2933.46,2443.09 c 6.89,0 15.9,-5.41 15.9,-18.9 0,-23.4 -19.2,-81.29 -45.61,-81.29 -7.19,0 -14.69,6.29 -14.69,20.1 0,24.29 19.49,80.09 44.4,80.09 z m -42.91,-117.59 c 17.11,0 35.09,11.39 45.31,30.59 h 0.59 c -0.9,-4.5 -0.9,-9.6 -0.9,-13.5 0,-12 10.5,-17.09 19.8,-17.09 11.41,0 28.2,7.19 43.79,38.69 l 2.11,4.2 -6.6,3 -1.51,-3 c -2.09,-4.5 -11.69,-22.5 -20.7,-22.5 -2.09,0 -5.68,1.8 -5.68,8.1 0,4.81 1.48,15.61 24.88,93 l 3.01,9.89 h -31.8 l -6.6,-18.88 c -3.3,12.59 -13.5,21.89 -29.39,21.89 -35.1,0 -73.5,-42.6 -73.5,-91.8 0,-31.2 19.8,-42.59 37.19,-42.59" /><path
         id="path32"
         style="fill:#231f20;fill-opacity:1;fill-rule:nonzero;stroke:none"
         d="m 3110.16,2450.29 c 2.69,0 5.68,-0.3 8.39,-0.91 l -14.41,-53.69 h -5.68 c -15.32,0 -22.21,11.1 -22.21,22.5 0,16.19 12.3,32.1 33.91,32.1 z m -18.3,-64.5 h 9.29 l -3.3,-11.99 c -1.5,-5.1 -4.8,-18.91 -4.8,-24.91 0,-17.1 9.9,-23.39 21.31,-23.39 25.48,0 39.29,33.3 42.89,43.49 l -5.71,2.1 -2.4,-5.4 c -2.99,-6.89 -10.8,-20.99 -18.59,-20.99 -4.81,0 -5.1,5.7 -5.1,10.49 0,7.81 2.09,20.4 21,82.81 l 5.7,18.88 c -3.01,0.32 -24.9,3.01 -45.61,3.01 -55.49,0 -64.49,-24.9 -64.49,-39.9 0,-15.6 13.2,-28.2 31.5,-28.8 v -0.9 c -22.5,-4.5 -35.09,-21.9 -42.3,-33 -3.3,-4.8 -6,-12.59 -11.09,-12.59 -2.41,0 -5.41,1.5 -5.41,7.79 0,3.3 1.21,6.9 2.71,9.61 l -6.91,2.69 c -2.99,-5.09 -4.2,-9.9 -4.2,-13.8 0,-12.29 6.6,-25.49 26.11,-25.49 22.48,0 26.09,21.29 39.3,45 7.19,12.89 11.09,15.29 20.1,15.29" /><path
         id="path34"
         style="fill:#231f20;fill-opacity:1;fill-rule:nonzero;stroke:none"
         d="m 931.973,206.379 c 15.605,0 15.898,-15 15.898,-24.289 0,-12.891 -2.402,-25.488 -8.105,-48.602 -3.594,-14.699 -11.094,-41.6989 -31.192,-41.6989 -4.804,0 -10.195,2.4101 -14.394,6.9023 l 20.691,100.7966 c 4.504,3.594 12.004,6.891 17.102,6.891 z M 861.777,98.6914 c -4.504,-3.5898 -11.406,-6.9023 -16.797,-6.9023 -15.898,0 -15.898,15.3009 -15.898,26.4099 0,17.992 4.797,32.383 8.691,47.699 3.008,11.993 9.598,40.481 30.606,40.481 3.894,0 9.297,-1.789 14.101,-6.891 z M 945.77,276.891 c 5.097,0 6.906,-4.2 8.097,-6.911 2.703,-6.289 6.903,-15.589 16.797,-15.589 7.207,0 14.102,5.39 14.102,15.589 0,9 -8.996,18.61 -28.196,18.61 -26.394,0 -56.394,-21.891 -70.8,-75 l -0.899,-3.301 c -4.793,3.012 -12.898,6 -24.297,6 -38.992,0 -65.398,-48.301 -65.398,-90.898 0,-24.903 15.304,-43.5004 37.793,-43.5004 9.004,0 18.613,2.1094 26.699,6 l -2.09,-13.5 C 850.977,31.1914 838.672,11.3984 829.68,11.3984 c -14.407,0 -0.598,23.7032 -19.797,23.7032 -5.703,0 -14.102,-4.5 -14.102,-14.711 C 795.781,9 806.27,0 821.875,0 c 17.996,0 51.301,15.2891 68.398,80.9883 l 1.797,6.9023 c 5.403,-3.3008 13.496,-6 24.297,-6 39.004,0 65.403,48.0074 65.403,90.8984 0,29.711 -20.098,43.5 -37.805,43.5 -8.992,0 -18.594,-2.09 -26.699,-6 l 0.605,3.91 c 6.895,44.082 18.906,62.692 27.899,62.692" /><path
         id="path36"
         style="fill:#231f20;fill-opacity:1;fill-rule:nonzero;stroke:none"
         d="m 1144.96,122.09 c -5.1,-10.199 -11.39,-21 -18.59,-21 -4.81,0 -5.1,5.699 -5.1,10.512 0,15.589 14.1,62.378 17.4,73.5 l 3.6,11.988 c 1.2,3.898 2.4,6.601 2.4,9.898 0,7.5 -5.71,9.301 -20.1,9.301 -33.3,0 -50.1,-12.598 -61.5,-42 -6.9,-18 -15.9,-71.09 -32.4,-71.09 -2.7,0 -3.6,2.403 -4.5,4.492 -2.1,3.911 -5.99,9.61 -14.7,9.61 -10.2,0 -16.197,-7.813 -16.197,-16.211 0,-10.4884 8.107,-19.1994 20.997,-19.1994 33.3,0 41.41,35.0974 50.1,67.2114 5.99,22.187 15.3,55.187 41.1,54.878 0.9,0 2.71,0 3.29,-1.191 0.31,-0.289 0.31,-0.898 0.31,-1.5 0,-0.609 0,-1.508 -0.31,-2.09 l -16.49,-60.609 c -1.8,-6.602 -5.4,-25.192 -5.4,-36.602 0,-14.9997 10.8,-20.0974 21.31,-20.0974 9.59,0 26.38,6 39.59,36.0004 l 3.3,7.5 -5.71,1.5 -2.4,-4.801" /><path
         id="path38"
         style="fill:#231f20;fill-opacity:1;fill-rule:nonzero;stroke:none"
         d="m 1261.37,137.398 c -3.6,-12.007 -13.5,-45.3082 -34.2,-45.3082 -5.71,0 -15.29,3.6094 -15.29,19.5122 0,18.886 10.79,62.687 20.99,78.886 7.79,12.594 16.19,15.602 22.2,15.602 6.9,0 15.3,-3.899 15.3,-20.102 0,-12.906 -3.01,-27.59 -9,-48.59 z m -7.5,78.891 c -43.21,0 -75.9,-41.391 -75.9,-82.187 0,-27.313 16.8,-52.2114 48.59,-52.2114 42.91,0 76.8,41.0974 76.8,81.8984 0,29.699 -18.59,52.5 -49.49,52.5" /><path
         id="path40"
         style="fill:#231f20;fill-opacity:1;fill-rule:nonzero;stroke:none"
         d="m 1399.38,98.1016 c -7.21,0 -15.32,4.1994 -15.32,20.3864 0,33.602 19.81,81.293 41.41,81.293 6.6,0 16.8,-3.883 16.8,-19.492 0,-26.699 -17.7,-82.1874 -42.89,-82.1874 z m 41.38,118.1874 c -19.49,0 -33.3,-11.699 -40.19,-20.098 l 16.5,62.09 -28.81,5.117 -8.69,-31.816 c -5.4,-20.102 -12.6,-26.391 -26.7,-37.793 -8.7,-6.898 -20.99,-16.508 -26.99,-36.289 l 8.4,-3.301 c 6.59,19.199 16.49,27.891 34.49,36.289 l -39.9,-148.4997 c -4.2,-15.2891 -6.9,-28.1797 -19.8,-29.6875 l -5.69,-0.6016 -2.4,-8.68748 35.39,0.57812 39.29,-0.57812 2.41,8.68748 -7.5,0.6016 c -10.8,0.8984 -12,8.6875 -12,12.5976 0,4.8008 0.9,8.4024 2.7,15.6133 l 15.9,60.2893 c 2.69,-5.6994 10.8,-18.9104 30,-18.9104 39.6,0 69.9,42.9104 69.9,90.6094 0,31.789 -17.7,43.789 -36.31,43.789" /><path
         id="path42"
         style="fill:#231f20;fill-opacity:1;fill-rule:nonzero;stroke:none"
         d="m 1647.17,124.488 c -3.91,-8.687 -10.8,-23.398 -18.3,-23.398 -5.41,0 -5.41,6 -5.41,10.512 0,10.796 3.6,24.296 10.2,48.589 l 14.41,53.11 h -31.8 L 1605.47,180 c -7.8,-23.711 -29.41,-79.199 -49.5,-79.199 -4.2,0 -9,1.801 -9,9.59 0,3.3 0.9,7.5 4.2,17.711 l 14.4,44.687 c 4.49,13.813 4.2,20.699 4.2,23.109 0,13.493 -10.5,20.391 -22.21,20.391 -21.9,0 -34.19,-19.5 -45.89,-42 l 5.69,-3.301 2.71,4.813 c 11.39,20.097 17.7,20.988 19.5,20.988 3.59,0 6.29,-2.687 6.29,-7.809 0,-6.89 -4.8,-15.582 -16.49,-51.89 -6,-18.891 -6.6,-26.988 -6.6,-30.899 0,-12.8902 7.5,-24.3004 24.9,-24.3004 31.2,0 49.2,33.5974 54.29,44.7114 h 0.6 c -2.39,-11.411 -2.7,-18.012 -2.7,-21.911 0,-5.691 0.9,-22.8004 20.1,-22.8004 24.6,0 36.6,25.1994 42.9,38.7114 l 2.1,4.5 -6.3,2.687 -1.49,-3.301" /><path
         id="path44"
         style="fill:#231f20;fill-opacity:1;fill-rule:nonzero;stroke:none"
         d="m 1757.86,216.289 c -46.2,0 -78,-47.09 -78,-85.801 0,-27.289 15.9,-48.5974 45,-48.5974 32.7,0 49.5,24.0074 56.1,33.5974 l 3.9,5.703 -7.2,5.098 c -4.5,-7.5 -19.5,-28.789 -38.7,-28.789 -7.8,0 -21.89,3.301 -21.89,26.699 0,26.699 16.8,83.692 41.99,83.692 5.4,0 8.11,-2.993 8.11,-6 0,-3.012 -3.01,-5.7 -4.81,-9.903 -0.9,-1.797 -1.5,-3.906 -1.5,-6 0,-8.386 7.21,-14.386 17.1,-14.386 12.29,0 17.7,10.187 17.7,18.886 0,14.102 -14.1,25.801 -37.8,25.801" /><path
         id="path46"
         style="fill:#231f20;fill-opacity:1;fill-rule:nonzero;stroke:none"
         d="m 2018.26,123.59 c -12.01,-20.102 -17.7,-21.891 -20.41,-21.891 -0.9,0 -2.09,0.289 -2.99,0.903 -0.9,0.597 -1.5,1.5 -1.8,2.398 -0.6,1.191 -0.6,2.691 -0.6,3.898 0,5.391 1.5,13.5 10.49,37.801 3.91,10.192 8.41,20.699 11.11,32.09 1.19,4.512 1.8,9.293 1.8,14.102 0,3.898 -0.9,23.398 -23.11,23.398 -21.6,0 -41.7,-17.09 -52.19,-39.91 h -0.9 c 1.49,6.922 2.4,9.91 2.7,12.312 0.3,2.399 0.6,4.489 0.6,6.891 0,16.207 -12.61,20.707 -21.6,20.707 -6.3,0 -12.6,-2.09 -18.29,-5.391 -12.91,-7.5 -24.61,-22.816 -30.9,-34.519 h -0.91 c 2.4,8.402 2.4,15.32 2.4,18.312 0,16.789 -10.2,21.598 -18.89,21.598 -19.2,0 -31.51,-18.301 -36.31,-26.098 -3.6,-5.703 -6.59,-11.089 -9,-17.402 l 6.3,-3.008 0.9,1.821 c 4.2,8.687 11.7,24.589 19.5,24.589 5.11,0 5.4,-6 5.4,-8.402 0,-10.508 -3,-24 -12.3,-55.187 l -14.1,-47.7036 h 31.8 l 14.41,43.7926 c 19.49,58.809 35.99,68.399 44.39,68.399 4.81,0 6.9,-3.602 6.9,-9.301 0,-7.789 -3.6,-16.801 -5.1,-21.891 l -24.3,-80.9996 h 31.8 l 15.29,46.1916 c 4.51,13.5 21.31,56.992 38.71,65.101 1.5,0.598 2.99,1.207 4.8,1.207 2.7,0 5.69,-1.207 7.19,-4.796 0.61,-1.801 0.61,-3.622 0.61,-5.411 0,-16.203 -12.3,-34.203 -21.6,-67.191 -1.51,-5.102 -2.4,-10.199 -2.4,-15.609 0,-14.1019 9,-22.5004 23.1,-22.5004 17.39,0 28.5,13.5 36,24.6094 2.69,3.891 5.1,8.09 7.2,12.289 l 2.09,4.199 -5.99,3.614 -1.8,-3.012" /><path
         id="path48"
         style="fill:#231f20;fill-opacity:1;fill-rule:nonzero;stroke:none"
         d="m 2190.46,124.488 c -3.9,-8.687 -10.8,-23.398 -18.3,-23.398 -5.4,0 -5.4,6 -5.4,10.512 0,10.796 3.59,24.296 10.19,48.589 l 14.41,53.11 h -31.8 L 2148.76,180 c -7.8,-23.711 -29.4,-79.199 -49.5,-79.199 -4.2,0 -9,1.801 -9,9.59 0,3.3 0.9,7.5 4.2,17.711 l 14.41,44.687 c 4.49,13.813 4.2,20.699 4.2,23.109 0,13.493 -10.51,20.391 -22.21,20.391 -21.9,0 -34.2,-19.5 -45.9,-42 l 5.7,-3.301 2.7,4.813 c 11.41,20.097 17.7,20.988 19.5,20.988 3.6,0 6.3,-2.687 6.3,-7.809 0,-6.89 -4.8,-15.582 -16.5,-51.89 -6,-18.891 -6.6,-26.988 -6.6,-30.899 0,-12.8902 7.5,-24.3004 24.9,-24.3004 31.21,0 49.2,33.5974 54.29,44.7114 h 0.61 c -2.4,-11.411 -2.7,-18.012 -2.7,-21.911 0,-5.691 0.9,-22.8004 20.1,-22.8004 24.59,0 36.6,25.1994 42.89,38.7114 l 2.11,4.5 -6.31,2.687 -1.49,-3.301" /><path
         id="path50"
         style="fill:#231f20;fill-opacity:1;fill-rule:nonzero;stroke:none"
         d="m 2347.66,216.289 c -28.49,0 -35.99,-30.59 -45.9,-46.508 -4.8,-7.793 -10.19,-12.89 -18.9,-12.89 h -5.71 l 2.11,7.5 c 2.09,6.898 4.2,20.39 4.2,29.097 0,17.703 -9.61,22.801 -19.2,22.801 -26.4,0 -41.1,-32.988 -45,-43.207 l 6.31,-2.691 c 4.79,10.8 12.29,26.699 20.39,26.699 4.2,0 4.8,-4.488 4.8,-8.11 0,-12.89 -4.2,-29.082 -10.19,-50.992 l -14.41,-53.0896 h 31.8 l 16.81,62.7036 h 4.49 c 5.39,0 8.4,-3.313 10.2,-15.614 l 2.4,-17.398 c 2.11,-15.8986 5.1,-32.6994 24.9,-32.6994 22.8,0 32.09,17.3985 39.3,39.0074 l 1.19,3.59 -6,2.114 -2.08,-5.411 C 2341.96,102.891 2336.57,99 2332.95,99 c -7.5,0 -9,17.988 -12.89,30.289 -2.4,7.211 -7.2,20.402 -22.81,22.801 v 0.898 c 8.71,2.711 12.31,7.203 17.11,16.211 7.5,14.391 10.8,26.992 18.59,26.992 5.1,0 4.81,-4.812 8.11,-8.109 2.09,-2.094 5.7,-3.883 11.41,-3.883 9.59,0 14.08,8.403 14.08,15 0,7.789 -4.79,17.09 -18.89,17.09" /><path
         id="path52"
         style="fill:#231f20;fill-opacity:1;fill-rule:nonzero;stroke:none"
         d="m 2526.15,124.488 c -3.9,-8.687 -10.8,-23.398 -18.3,-23.398 -5.41,0 -5.41,6 -5.41,10.512 0,10.796 3.61,24.296 10.22,48.589 l 14.39,53.11 h -31.8 L 2484.45,180 c -7.79,-23.711 -29.39,-79.199 -49.49,-79.199 -4.2,0 -9,1.801 -9,9.59 0,3.3 0.9,7.5 4.2,17.711 l 14.39,44.687 c 4.49,13.813 4.2,20.699 4.2,23.109 0,13.493 -10.49,20.391 -22.19,20.391 -21.91,0 -34.2,-19.5 -45.9,-42 l 5.69,-3.301 2.71,4.813 c 11.39,20.097 17.7,20.988 19.49,20.988 3.6,0 6.29,-2.687 6.29,-7.809 0,-6.89 -4.78,-15.582 -16.48,-51.89 -6,-18.891 -6.6,-26.988 -6.6,-30.899 0,-12.8902 7.5,-24.3004 24.9,-24.3004 31.19,0 49.2,33.5974 54.3,44.7114 h 0.58 c -2.38,-11.411 -2.69,-18.012 -2.69,-21.911 0,-5.691 0.9,-22.8004 20.1,-22.8004 24.6,0 36.6,25.1994 42.91,38.7114 l 2.09,4.5 -6.29,2.687 -1.51,-3.301" /><path
         id="path54"
         style="fill:#231f20;fill-opacity:1;fill-rule:nonzero;stroke:none"
         d="m 2785.35,124.488 c -3.9,-8.687 -10.8,-23.398 -18.3,-23.398 -5.41,0 -5.41,6 -5.41,10.512 0,10.796 3.59,24.296 10.2,48.589 l 14.41,53.11 h -31.8 L 2743.65,180 c -7.81,-23.711 -29.41,-79.199 -49.51,-79.199 -4.2,0 -8.98,1.801 -8.98,9.59 0,3.3 0.89,7.5 4.2,17.711 l 14.39,44.687 c 4.49,13.813 4.2,20.699 4.2,23.109 0,13.493 -10.51,20.391 -22.21,20.391 -21.89,0 -34.2,-19.5 -45.9,-42 l 5.71,-3.301 2.69,4.813 c 11.41,20.097 17.72,20.988 19.51,20.988 3.6,0 6.29,-2.687 6.29,-7.809 0,-6.89 -4.8,-15.582 -16.5,-51.89 -6,-18.891 -6.58,-26.988 -6.58,-30.899 0,-12.8902 7.5,-24.3004 24.88,-24.3004 31.21,0 49.2,33.5974 54.3,44.7114 h 0.6 c -2.4,-11.411 -2.69,-18.012 -2.69,-21.911 0,-5.691 0.9,-22.8004 20.09,-22.8004 24.59,0 36.61,25.1994 42.9,38.7114 l 2.1,4.5 -6.3,2.687 -1.49,-3.301" /><path
         id="path56"
         style="fill:#231f20;fill-opacity:1;fill-rule:nonzero;stroke:none"
         d="m 2986.35,137.398 c -6.02,-18.609 -16.21,-45.3082 -34.2,-45.3082 -7.21,0 -15.31,5.4102 -15.31,20.6992 0,9 1.79,23.711 9.9,51 10.19,33.902 23.4,42.59 33.3,42.59 6.89,0 16.19,-5.699 18.01,-17.981 -2.72,-18.007 -6.6,-35.097 -11.7,-51 z m -15,156 c -8.4,0 -19.2,-1.207 -31.8,-7.816 l 4.79,-8.691 c 6.91,4.199 15.89,6.597 23.1,6.597 14.1,0 36.9,-11.109 36.9,-58.797 0,-6.293 -0.61,-12.902 -1.51,-19.203 -8.08,7.813 -17.69,10.801 -23.98,10.801 -31.51,0 -75.9,-30.59 -75.9,-80.098 0,-31.8 18.59,-54.3004 48.59,-54.3004 32.99,0 85.8,29.0974 85.8,123.5974 0,32.692 -6.6,87.91 -65.99,87.91" /><path
         id="path58"
         style="fill:#231f20;fill-opacity:1;fill-rule:nonzero;stroke:none"
         d="m 3103.63,147.602 c 10.8,47.089 26.12,60 37.5,60 6.31,0 11.12,-5.411 11.12,-13.5 0,-17.114 -18.3,-37.5 -48.62,-46.5 z m 38.71,68.687 c -52.5,0 -80.99,-53.398 -80.99,-90 0,-32.3906 23.98,-44.3984 45.9,-44.3984 27.89,0 48.59,20.7114 60,38.7114 l -7.82,6 -2.69,-3.614 c -5.1,-6.898 -20.7,-24.5896 -38.11,-24.5896 -10.19,0 -19.78,7.4996 -19.78,20.7036 0,4.488 0.58,12.886 2.09,18.886 l 5.99,1.5 c 50.71,12.602 73.21,33.594 73.21,51.891 0,13.519 -12.6,24.91 -37.8,24.91" /><path
         id="path60"
         style="fill:#231f20;fill-opacity:1;fill-rule:nonzero;stroke:none"
         d="m 3323.54,216.289 c -28.5,0 -36,-30.59 -45.9,-46.508 -4.81,-7.793 -10.2,-12.89 -18.91,-12.89 h -5.68 l 2.09,7.5 c 2.11,6.898 4.2,20.39 4.2,29.097 0,17.703 -9.59,22.801 -19.2,22.801 -26.39,0 -41.1,-32.988 -45,-43.207 l 6.31,-2.691 c 4.8,10.8 12.3,26.699 20.39,26.699 4.2,0 4.8,-4.488 4.8,-8.11 0,-12.89 -4.2,-29.082 -10.19,-50.992 l -14.4,-53.0896 h 31.8 l 16.79,62.7036 h 4.5 c 5.41,0 8.4,-3.313 10.19,-15.614 l 2.4,-17.398 c 2.11,-15.8986 5.1,-32.6994 24.91,-32.6994 22.79,0 32.11,17.3985 39.29,39.0074 l 1.21,3.59 -6.01,2.114 -2.09,-5.411 C 3317.83,102.891 3312.44,99 3308.83,99 c -7.5,0 -8.99,17.988 -12.89,30.289 -2.4,7.211 -7.21,20.402 -22.8,22.801 v 0.898 c 8.7,2.711 12.29,7.203 17.09,16.211 7.5,14.391 10.81,26.992 18.6,26.992 5.12,0 4.8,-4.812 8.1,-8.109 2.11,-2.094 5.71,-3.883 11.41,-3.883 9.59,0 14.1,8.403 14.1,15 0,7.789 -4.8,17.09 -18.9,17.09" /><path
         id="path62"
         style="fill:#231f20;fill-opacity:1;fill-rule:nonzero;stroke:none"
         d="m 3443.83,137.398 c -3.6,-12.007 -13.5,-45.3082 -34.2,-45.3082 -5.68,0 -15.29,3.6094 -15.29,19.5122 0,18.886 10.8,62.687 20.99,78.886 7.81,12.594 16.21,15.602 22.21,15.602 6.89,0 15.29,-3.899 15.29,-20.102 0,-12.906 -2.99,-27.59 -9,-48.59 z m -7.5,78.891 c -43.19,0 -75.9,-41.391 -75.9,-82.187 0,-27.313 16.82,-52.2114 48.61,-52.2114 42.89,0 76.8,41.0974 76.8,81.8984 0,29.699 -18.61,52.5 -49.51,52.5" /><path
         id="path64"
         style="fill:#231f20;fill-opacity:1;fill-rule:nonzero;stroke:none"
         d="m 3581.84,98.1016 c -7.21,0 -15.3,4.1994 -15.3,20.3864 0,33.602 19.79,81.293 41.39,81.293 6.6,0 16.8,-3.883 16.8,-19.492 0,-26.699 -17.7,-82.1874 -42.89,-82.1874 z m 41.4,118.1874 c -19.51,0 -33.3,-11.699 -40.21,-20.098 l 16.5,62.09 -28.79,5.117 -8.71,-31.816 c -5.39,-20.102 -12.6,-26.391 -26.7,-37.793 -8.69,-6.898 -20.99,-16.508 -26.99,-36.289 l 8.4,-3.301 c 6.6,19.199 16.5,27.891 34.49,36.289 L 3511.35,41.9883 c -4.2,-15.2891 -6.92,-28.1797 -19.81,-29.6875 l -5.7,-0.6016 -2.4,-8.68748 35.41,0.57812 39.29,-0.57812 2.41,8.68748 -7.5,0.6016 c -10.8,0.8984 -12.01,8.6875 -12.01,12.5976 0,4.8008 0.89,8.4024 2.69,15.6133 l 15.9,60.2893 c 2.71,-5.6994 10.8,-18.9104 30,-18.9104 39.61,0 69.9,42.9104 69.9,90.6094 0,31.789 -17.69,43.789 -36.29,43.789" /><path
         id="path66"
         style="fill:#231f20;fill-opacity:1;fill-rule:nonzero;stroke:none"
         d="m 3738.44,99.2891 c -7.21,0 -14.71,6.3129 -14.71,20.1019 0,24.3 19.51,80.097 44.4,80.097 6.91,0 15.89,-5.386 15.89,-18.906 0,-23.391 -19.2,-81.2929 -45.58,-81.2929 z m 89.39,25.5119 c -2.11,-4.512 -11.7,-22.5 -20.7,-22.5 -2.09,0 -5.7,1.801 -5.7,8.09 0,4.8 1.5,15.597 24.9,93.007 l 3.01,9.903 h -31.8 l -6.6,-18.91 c -3.3,12.597 -13.5,21.898 -29.42,21.898 -35.09,0 -73.49,-42.598 -73.49,-91.801 0,-31.1872 19.8,-42.5974 37.2,-42.5974 17.09,0 35.1,11.4102 45.3,30.6094 h 0.6 c -0.9,-4.512 -0.9,-9.609 -0.9,-13.5 0,-12.0117 10.49,-17.1094 19.81,-17.1094 11.39,0 28.18,7.211 43.79,38.7114 l 2.11,4.199 -6.6,2.988 -1.51,-2.988" /><path
         id="path68"
         style="fill:#231f20;fill-opacity:1;fill-rule:nonzero;stroke:none"
         d="m 551.926,1084.98 c -6.965,-23.19 -24.055,-54.56 -64.446,-64.12 -8.664,-2.06 -12.968,-3.07 -21.628,-5.15 -43.832,183.64 -87.649,367.3 -131.497,550.96 7.305,1.72 10.989,2.58 18.29,4.32 42.699,10.11 71.789,-3.54 86.875,-14.53 32.707,-23.81 39.953,-70.38 46.82,-100.62 23.379,-103.34 35.066,-154.96 58.445,-258.3 13.672,-60.45 13.164,-92.4 7.141,-112.56 z m -220,-102.218 c -40.266,-10.184 -70.981,9.726 -86.836,27.108 -13.344,14.61 -29.172,40.44 -44.238,97.66 -27.59,104.64 -41.372,156.91 -68.938,261.54 -7.922,29.97 -22.551,75.75 -4.98,110.86 10.632,21.26 36.992,44.6 70.429,53.05 7.293,1.86 10.95,2.76 18.25,4.61 45.969,-183.13 91.938,-366.27 137.903,-549.399 -8.653,-2.171 -12.957,-3.222 -21.59,-5.429 z M 656.77,1235.19 c -19.36,90.36 -29.043,135.53 -48.379,225.91 -21.543,100.59 -48.469,160.11 -108.782,192.65 -41.789,22.54 -104.773,34.34 -167.921,19.39 -8.622,-2.03 -12.938,-3.05 -21.551,-5.09 -9.551,40.02 -14.317,60.05 -23.867,100.05 -48.489,-11.57 -72.696,-17.54 -121.082,-29.67 10.007,-39.91 15.007,-59.88 25.027,-99.78 -8.594,-2.15 -12.91,-3.2 -21.504,-5.39 C 105.754,1617.33 55.3008,1577.72 28.5664,1538.39 -10,1481.66 -6.4375,1416.38 20.9375,1317.24 c 24.5898,-89.09 36.875,-133.63 61.4648,-222.72 19.1287,-69.25 33.8597,-130.872 100.3907,-179.942 34.52,-25.449 89.363,-54.547 174.766,-32.898 8.535,2.172 12.761,3.289 21.296,5.441 10.579,-42.07 15.903,-63.211 26.458,-105.269 43.925,11.007 65.91,16.437 109.929,26.957 -10.066,42.203 -15.137,63.269 -25.203,105.472 8.555,2.059 12.852,3.071 21.406,5.09 91.375,21.598 125.071,80.759 139.551,109.859 29.453,59.18 26.992,106.77 5.774,205.96" /><path
         id="path70"
         style="fill:#231f20;fill-opacity:1;fill-rule:nonzero;stroke:none"
         d="m 891.055,979.02 c 14.57,63.22 14.355,143.13 13.105,193.95 -1.367,54.98 -16.953,256.46 -28.965,344.43 -12.754,93.23 -19.16,139.86 -31.894,233.08 31.289,4.3 46.953,6.4 78.281,10.44 37.578,-291.59 75.293,-583.15 112.908,-874.709 44.81,5.777 67.21,8.57 112.05,13.809 -38.34,326.52 -76.58,653.02 -114.9,979.55 -124.101,-14.55 -186.093,-22.8 -309.843,-40.98 17.461,-118.77 26.191,-178.16 43.652,-296.95 13.516,-91.95 26.699,-204.04 32.344,-302.79 7.715,-135.41 4.824,-194.44 -8.555,-233.54 -7.207,-21.048 -17.89,-38.341 -36.191,-54.08 6.484,-41.171 9.746,-61.781 16.211,-102.968 5.722,0.898 8.574,1.308 14.316,2.207 34.356,5.332 82.754,21.269 107.481,128.551" /><path
         id="path72"
         style="fill:#231f20;fill-opacity:1;fill-rule:nonzero;stroke:none"
         d="m 1321.15,1792.07 c 6.8,14.08 24.34,29.1 52.66,31.52 28.32,2.42 48.12,-9.34 57.21,-22.11 6.6,-9.26 11.52,-25.94 15.43,-75.1 15.87,-199.43 31.71,-398.86 47.57,-598.32 3.91,-49.14 1.9,-66.36 -2.73,-76.52 -6.39,-14.06 -22.56,-28.67 -48.73,-30.9 -26.17,-2.24 -44.65,9.44 -53.32,22.17 -6.27,9.22 -11.19,25.82 -15.7,74.94 -18.31,199.24 -36.59,398.46 -54.87,597.7 -4.51,49.12 -2.44,66.36 2.48,76.62 z m -64.61,-661.64 c 5.22,-50.45 8.32,-120.92 55.43,-168.559 17.85,-18.043 60.32,-51.891 139.44,-45.109 79.14,6.769 115.25,47.34 129.74,68.16 38.28,54.918 29.36,124.918 25.94,175.528 -12.48,183.65 -24.9,367.3 -37.4,550.95 -3.44,50.61 -3.24,121.45 -52.83,170.08 -18.77,18.42 -64.59,53.44 -151.96,45.96 -87.38,-7.48 -126.58,-49.77 -141.97,-71.1 -40.64,-56.36 -28.44,-126.13 -23.2,-176.56 18.92,-183.12 37.87,-366.25 56.81,-549.35" /><path
         id="path74"
         style="fill:#231f20;fill-opacity:1;fill-rule:nonzero;stroke:none"
         d="m 1963.34,1537.65 c -14.65,-30.54 -44.86,-29.67 -64.69,-30.41 -21.95,-0.8 -32.93,-1.25 -54.88,-2.16 -5.66,133.43 -8.52,200.11 -14.18,333.55 22.05,0.94 33.05,1.37 55.1,2.19 17.28,0.64 42.58,-0.06 58.83,-16.21 19.21,-19.13 20.56,-55.81 20.78,-62.84 1.87,-62.52 2.81,-93.77 4.68,-156.31 1.47,-49.29 -2.91,-62.14 -5.64,-67.81 z m 126.09,49.57 c -1.23,67.05 -1.85,100.59 -3.08,167.64 -0.69,36.64 -6.33,94.45 -42.05,135.84 -45.35,52.52 -112.64,56.21 -149.22,54.9 -77.58,-2.79 -116.35,-4.55 -193.89,-8.75 17.79,-328.26 35.53,-656.52 53.26,-984.799 45.02,2.437 67.54,3.551 112.58,5.469 -7.54,177.34 -11.31,266.01 -18.85,443.38 24.28,-1.8 71.39,-3.99 98.3,-1.94 40.3,3.07 79.44,15.82 107.52,53.69 24.38,32.86 36.35,85.26 35.43,134.57" /><path
         id="path76"
         style="fill:#231f20;fill-opacity:1;fill-rule:nonzero;stroke:none"
         d="m 2210.04,1952.3 c 2.15,-328.75 4.3,-657.5 6.42,-986.249 119.01,0.801 178.56,0.277 297.52,-2.602 1,41.681 1.51,62.521 2.5,104.221 -74.72,1.8 -112.09,2.35 -186.83,2.74 0.75,145.95 1.12,218.92 1.84,364.9 49.66,-0.27 74.51,-0.53 124.17,-1.37 0.71,41.7 1.06,62.5 1.78,104.2 -50.17,0.88 -75.25,1.15 -125.4,1.41 0.62,123.41 0.91,185.12 1.54,308.54 80.66,-0.42 120.97,-1 201.62,-2.94 0.99,41.69 1.5,62.54 2.5,104.24 -131.04,3.16 -196.58,3.75 -327.66,2.91" /><path
         id="path78"
         style="fill:#231f20;fill-opacity:1;fill-rule:nonzero;stroke:none"
         d="m 2749.77,1435.88 c 50.87,-2.33 76.32,-3.68 127.18,-6.64 -11.23,-191.86 -16.87,-287.78 -28.1,-479.611 45.02,-2.617 67.5,-4.117 112.48,-7.27 23.05,327.931 46.05,655.861 69.06,983.791 -49.53,3.48 -74.3,5.12 -123.85,8.03 -9.39,-160.36 -14.12,-240.53 -23.49,-400.88 -51.39,3 -77.09,4.35 -128.5,6.72 7.4,160.46 11.09,240.7 18.48,401.15 -49.59,2.28 -74.38,3.28 -123.99,4.98 -11.29,-328.56 -22.63,-657.11 -33.96,-985.662 45.06,-1.566 67.56,-2.468 112.58,-4.539 8.82,191.961 13.26,287.971 22.11,479.931" /><path
         id="path80"
         style="fill:#231f20;fill-opacity:1;fill-rule:nonzero;stroke:none"
         d="m 3406.31,900.859 c -8.48,-72.8 -12.72,-109.14 -21.21,-181.918 39.49,-4.613 59.22,-7.031 98.67,-12.05 14.49,114.05 21.74,171.078 36.25,285.121 -29.02,3.687 -43.54,5.508 -72.58,8.958 34.92,291.92 69.86,583.81 104.69,875.73 -49.38,5.89 -74.06,8.75 -123.5,14.08 -31.5,-292.31 -63.08,-584.61 -94.55,-876.92 -45.35,4.91 -68.03,7.17 -113.44,11.55 28.13,292.63 56.24,585.29 84.38,877.93 -49.47,4.75 -74.24,6.99 -123.75,11.19 -27.64,-327.6 -55.27,-655.18 -82.95,-982.76 123.32,-10.411 184.94,-16.598 307.99,-30.911" /><path
         id="path82"
         style="fill:#231f20;fill-opacity:1;fill-rule:nonzero;stroke:none"
         d="m 3989.69,1815.23 c -10.26,-63.39 -15.35,-95.16 -25.63,-158.57 -79.45,-140.73 -118.24,-211.49 -193.79,-353.54 7.21,27.99 10.82,42.01 18.09,69.98 27.54,185.06 41.29,277.62 68.85,462.68 -49.22,7.32 -73.85,10.82 -123.15,17.58 -44.65,-325.69 -89.22,-651.41 -133.85,-977.09 44.77,-6.141 67.11,-9.321 111.82,-15.981 11.11,74.691 16.68,112.012 27.79,186.701 74.3,142.23 112.45,213.03 190.67,353.93 -7.46,-26.76 -11.19,-40.18 -18.6,-66.96 -26.54,-164.12 -53.04,-328.2 -79.59,-492.3 44.63,-7.23 66.96,-11.019 111.53,-18.75 56.23,323.9 112.42,647.83 168.69,971.76 -49.12,8.49 -73.67,12.63 -122.83,20.56" /><path
         id="path84"
         style="fill:#231f20;fill-opacity:1;fill-rule:nonzero;stroke:none"
         d="m 4378.42,1303.4 c -23.75,6.39 -58.58,21.44 -72.93,42.74 -17.13,25.44 -7.93,67.56 0.19,98.94 11.35,43.63 17.02,65.47 28.28,109.13 6.39,24.54 10.71,47.54 40.63,62.2 29.08,14.29 54.69,8.87 83.77,1.05 11,-2.97 16.52,-4.5 27.54,-7.5 -34.12,-125.06 -51.15,-187.55 -85.22,-312.61 -8.92,2.45 -13.39,3.65 -22.26,6.05 z m 103.98,415.57 c -54.06,14.55 -132.07,33.11 -196.09,-13.1 -41.84,-30.15 -54.92,-76.32 -64.06,-113.26 -10.26,-41.59 -15.41,-62.36 -25.69,-103.92 -8.79,-35.58 -24.29,-95.6 -2.22,-143.18 16.48,-35.48 45.54,-50.81 62.61,-58.11 -0.58,-2.18 -0.84,-3.24 -1.42,-5.44 -20.63,-0.51 -42.56,-5.06 -60.49,-15.09 -45.66,-25.46 -61.93,-78.86 -70.1,-111.7 -20.37,-82.04 -30.56,-123.06 -50.92,-205.1 -15.29,-61.539 -23.51,-94.25 -62.91,-120.871 -0.66,-2.738 -1.01,-4.121 -1.72,-6.867 48.48,-11.863 72.68,-18.004 121.04,-30.48 21.09,23.648 33.91,49.449 49.2,108.078 23.46,89.992 35.16,134.95 58.61,224.94 9.26,35.44 17.85,62.59 33.5,74.28 17.24,12.91 48.69,11.91 72.17,5.58 11.73,-3.14 17.59,-4.77 29.33,-7.97 -47.67,-175.06 -71.56,-262.6 -119.29,-437.678 43.75,-11.91 65.54,-17.992 109.14,-30.434 90.15,316.182 180.31,632.312 270.45,948.482 -60.34,17.21 -90.59,25.52 -151.14,41.84" /><path
         id="path86"
         style="fill:#231f20;fill-opacity:1;fill-rule:nonzero;stroke:none"
         d="m 309.07,462.281 c -14.715,-2.461 -25.086,-16.84 -22.625,-31.359 2.461,-14.543 16.934,-24.742 31.582,-22.293 14.649,2.453 25.008,16.769 22.618,31.312 -2.391,14.528 -16.856,24.797 -31.575,22.34" /><path
         id="path88"
         style="fill:#231f20;fill-opacity:1;fill-rule:nonzero;stroke:none"
         d="m 434.773,482.602 c -14.734,-2.301 -25.242,-16.59 -22.937,-31.141 2.312,-14.551 16.66,-24.891 31.328,-22.602 14.668,2.301 25.215,16.512 22.969,31.082 -2.246,14.559 -16.621,24.969 -31.36,22.661" /><path
         id="path90"
         style="fill:#231f20;fill-opacity:1;fill-rule:nonzero;stroke:none"
         d="m 560.613,501.641 c -14.746,-2.153 -25.398,-16.34 -23.242,-30.911 2.16,-14.582 16.418,-25.058 31.106,-22.921 14.687,2.14 25.324,16.261 23.234,30.851 -2.094,14.578 -16.352,25.129 -31.098,22.981" /><path
         id="path92"
         style="fill:#231f20;fill-opacity:1;fill-rule:nonzero;stroke:none"
         d="m 686.641,519.34 c -14.766,-2 -25.594,-16.078 -23.582,-30.668 2.007,-14.602 16.16,-25.231 30.859,-23.231 14.695,1.989 25.496,15.957 23.555,30.571 -1.946,14.597 -16.067,25.34 -30.832,23.328" /><path
         id="path94"
         style="fill:#231f20;fill-opacity:1;fill-rule:nonzero;stroke:none"
         d="m 819.48,481.75 c 14.719,1.832 25.649,15.719 23.86,30.352 -1.785,14.617 -15.789,25.468 -30.574,23.617 -14.786,-1.848 -25.723,-15.797 -23.871,-30.41 1.859,-14.618 15.871,-25.399 30.585,-23.559" /><path
         id="path96"
         style="fill:#231f20;fill-opacity:1;fill-rule:nonzero;stroke:none"
         d="m 939.023,550.809 c -14.793,-1.688 -25.886,-15.547 -24.179,-30.18 1.711,-14.641 15.617,-25.539 30.344,-23.859 14.722,1.671 25.789,15.449 24.148,30.101 -1.641,14.641 -15.52,25.629 -30.313,23.938" /><path
         id="path98"
         style="fill:#231f20;fill-opacity:1;fill-rule:nonzero;stroke:none"
         d="m 1040.93,534.672 c 1.55,-14.66 15.33,-25.742 30.08,-24.203 14.74,1.531 25.95,15.191 24.46,29.863 -1.5,14.648 -15.29,25.789 -30.1,24.258 -14.8,-1.539 -25.99,-15.281 -24.44,-29.918" /><path
         id="path100"
         style="fill:#231f20;fill-opacity:1;fill-rule:nonzero;stroke:none"
         d="m 1221.67,552.469 c -1.34,14.672 -15,25.972 -29.82,24.582 -14.83,-1.391 -26.2,-15 -24.79,-29.672 1.41,-14.68 15.09,-25.891 29.84,-24.508 14.76,1.379 26.11,14.918 24.77,29.598" /><path
         id="path102"
         style="fill:#231f20;fill-opacity:1;fill-rule:nonzero;stroke:none"
         d="m 1293.33,558.781 c 1.25,-14.691 14.81,-26.043 29.58,-24.82 14.77,1.219 26.26,14.668 25.07,29.359 -1.19,14.68 -14.73,26.11 -29.56,24.879 -14.84,-1.23 -26.34,-14.75 -25.09,-29.418" /><path
         id="path104"
         style="fill:#231f20;fill-opacity:1;fill-rule:nonzero;stroke:none"
         d="m 1419.69,568.859 c 1.1,-14.699 14.52,-26.16 29.29,-25.078 14.78,1.071 26.39,14.36 25.36,29.071 -1.04,14.699 -14.47,26.257 -29.3,25.179 -14.83,-1.07 -26.46,-14.48 -25.35,-29.172" /><path
         id="path106"
         style="fill:#231f20;fill-opacity:1;fill-rule:nonzero;stroke:none"
         d="m 1546.09,577.672 c 0.95,-14.703 14.27,-26.363 29.05,-25.453 14.77,0.922 26.55,14.133 25.66,28.851 -0.89,14.711 -14.18,26.41 -29.02,25.489 -14.85,-0.918 -26.63,-14.188 -25.69,-28.887" /><path
         id="path108"
         style="fill:#231f20;fill-opacity:1;fill-rule:nonzero;stroke:none"
         d="m 1701.35,559.41 c 14.78,0.762 26.7,13.86 25.96,28.578 -0.73,14.703 -13.92,26.551 -28.77,25.782 -14.86,-0.77 -26.77,-13.911 -25.97,-28.622 0.8,-14.707 13.99,-26.5 28.78,-25.738" /><path
         id="path110"
         style="fill:#231f20;fill-opacity:1;fill-rule:nonzero;stroke:none"
         d="m 1853.86,593.57 c -0.59,14.719 -13.64,26.711 -28.49,26.102 -14.85,-0.621 -26.9,-13.652 -26.26,-28.363 0.65,-14.727 13.72,-26.618 28.52,-26 14.79,0.621 26.81,13.543 26.23,28.261" /><path
         id="path112"
         style="fill:#231f20;fill-opacity:1;fill-rule:nonzero;stroke:none"
         d="m 1980.46,597.871 c -0.43,14.731 -13.35,26.859 -28.21,26.399 -14.87,-0.45 -27.04,-13.348 -26.55,-28.079 0.49,-14.742 13.42,-26.769 28.22,-26.312 14.79,0.461 26.97,13.262 26.54,27.992" /><path
         id="path114"
         style="fill:#231f20;fill-opacity:1;fill-rule:nonzero;stroke:none"
         d="m 2052.3,599.738 c 0.35,-14.726 13.18,-26.918 27.97,-26.617 14.8,0.309 27.08,13.02 26.81,27.758 -0.27,14.723 -13.09,26.961 -27.95,26.66 -14.86,-0.309 -27.17,-13.07 -26.83,-27.801" /><path
         id="path116"
         style="fill:#231f20;fill-opacity:1;fill-rule:nonzero;stroke:none"
         d="m 2233.71,602.559 c -0.12,14.722 -12.79,27.113 -27.66,26.953 -14.86,-0.16 -27.28,-12.813 -27.09,-27.543 0.18,-14.739 12.86,-27.047 27.66,-26.891 14.81,0.152 27.21,12.742 27.09,27.481" /><path
         id="path118"
         style="fill:#231f20;fill-opacity:1;fill-rule:nonzero;stroke:none"
         d="m 2360.38,602.91 c 0.02,14.719 -12.54,27.262 -27.41,27.262 -14.86,0 -27.38,-12.543 -27.36,-27.262 0.04,-14.738 12.56,-27.172 27.36,-27.172 14.81,0 27.37,12.434 27.41,27.172" /><path
         id="path120"
         style="fill:#231f20;fill-opacity:1;fill-rule:nonzero;stroke:none"
         d="m 2487.01,601.969 c 0.2,14.73 -12.24,27.383 -27.11,27.543 -14.86,0.16 -27.52,-12.231 -27.63,-26.953 -0.12,-14.739 12.28,-27.329 27.09,-27.481 14.8,-0.156 27.48,12.152 27.65,26.891" /><path
         id="path122"
         style="fill:#231f20;fill-opacity:1;fill-rule:nonzero;stroke:none"
         d="m 2586.82,627.539 c -14.87,0.301 -27.66,-11.937 -27.93,-26.66 -0.28,-14.738 12.01,-27.449 26.81,-27.758 14.79,-0.301 27.6,11.899 27.93,26.617 0.33,14.723 -11.95,27.492 -26.81,27.801" /><path
         id="path124"
         style="fill:#231f20;fill-opacity:1;fill-rule:nonzero;stroke:none"
         d="m 2685.53,597.871 c -0.43,-14.73 11.72,-27.531 26.52,-27.992 14.79,-0.457 27.74,11.582 28.22,26.312 0.49,14.719 -11.68,27.629 -26.54,28.079 -14.86,0.46 -27.79,-11.68 -28.2,-26.399" /><path
         id="path126"
         style="fill:#231f20;fill-opacity:1;fill-rule:nonzero;stroke:none"
         d="m 2840.59,619.672 c -14.87,0.609 -27.89,-11.391 -28.48,-26.102 -0.57,-14.718 11.43,-27.64 26.23,-28.261 14.79,-0.618 27.85,11.281 28.5,26 0.64,14.703 -11.39,27.742 -26.25,28.363" /><path
         id="path128"
         style="fill:#231f20;fill-opacity:1;fill-rule:nonzero;stroke:none"
         d="m 2938.65,587.988 c -0.72,-14.718 11.17,-27.797 25.96,-28.558 14.78,-0.758 27.95,11.011 28.75,25.718 0.8,14.711 -11.09,27.852 -25.94,28.622 -14.86,0.769 -28.03,-11.079 -28.77,-25.782" /><path
         id="path130"
         style="fill:#231f20;fill-opacity:1;fill-rule:nonzero;stroke:none"
         d="m 3065.18,581.07 c -0.9,-14.711 10.84,-27.91 25.62,-28.832 14.79,-0.91 28.13,10.731 29.08,25.422 0.96,14.699 -10.86,27.981 -25.7,28.899 -14.84,0.921 -28.13,-10.789 -29,-25.489" /><path
         id="path132"
         style="fill:#231f20;fill-opacity:1;fill-rule:nonzero;stroke:none"
         d="m 3216.95,543.77 c 14.79,-1.079 28.23,10.402 29.34,25.089 1.09,14.692 -10.55,28.102 -25.37,29.172 -14.85,1.078 -28.28,-10.492 -29.32,-25.179 -1.03,-14.704 10.59,-28.012 25.35,-29.082" /><path
         id="path134"
         style="fill:#231f20;fill-opacity:1;fill-rule:nonzero;stroke:none"
         d="m 3372.64,558.781 c 1.25,14.66 -10.26,28.188 -25.1,29.418 -14.83,1.231 -28.36,-10.199 -29.55,-24.879 -1.19,-14.691 10.27,-28.14 25.04,-29.359 14.76,-1.223 28.36,10.141 29.61,24.82" /><path
         id="path136"
         style="fill:#231f20;fill-opacity:1;fill-rule:nonzero;stroke:none"
         d="m 3444.3,552.488 c -1.35,-14.679 10,-28.238 24.74,-29.617 14.77,-1.383 28.42,9.84 29.83,24.508 1.4,14.66 -9.94,28.269 -24.77,29.66 -14.82,1.391 -28.47,-9.879 -29.8,-24.551" /><path
         id="path138"
         style="fill:#231f20;fill-opacity:1;fill-rule:nonzero;stroke:none"
         d="m 3594.96,510.48 c 14.75,-1.539 28.52,9.54 30.08,24.192 1.56,14.629 -9.67,28.379 -24.47,29.918 -14.81,1.531 -28.58,-9.61 -30.08,-24.258 -1.49,-14.66 9.72,-28.32 24.47,-29.852" /><path
         id="path140"
         style="fill:#231f20;fill-opacity:1;fill-rule:nonzero;stroke:none"
         d="m 3751.11,520.629 c 1.72,14.633 -9.37,28.492 -24.16,30.18 -14.8,1.691 -28.69,-9.297 -30.33,-23.938 -1.64,-14.652 9.42,-28.43 24.14,-30.101 14.73,-1.68 28.65,9.218 30.35,23.859" /><path
         id="path142"
         style="fill:#231f20;fill-opacity:1;fill-rule:nonzero;stroke:none"
         d="m 3853.18,535.738 c -14.78,1.852 -28.77,-9.027 -30.56,-23.648 -1.8,-14.629 9.14,-28.5 23.84,-30.328 14.73,-1.84 28.74,8.929 30.61,23.547 1.86,14.613 -9.1,28.582 -23.89,30.429" /><path
         id="path144"
         style="fill:#231f20;fill-opacity:1;fill-rule:nonzero;stroke:none"
         d="m 3979.34,519.34 c -14.77,2.012 -28.89,-8.738 -30.84,-23.328 -1.94,-14.614 8.84,-28.59 23.55,-30.582 14.69,-1.989 28.85,8.64 30.86,23.242 2.01,14.59 -8.81,28.668 -23.57,30.668" /><path
         id="path146"
         style="fill:#231f20;fill-opacity:1;fill-rule:nonzero;stroke:none"
         d="m 4105.33,501.641 c -14.76,2.148 -29,-8.403 -31.09,-22.981 -2.09,-14.59 8.55,-28.711 23.24,-30.851 14.69,-2.137 28.95,8.339 31.09,22.921 2.17,14.571 -8.49,28.758 -23.24,30.911" /><path
         id="path148"
         style="fill:#231f20;fill-opacity:1;fill-rule:nonzero;stroke:none"
         d="m 4231.19,482.621 c -14.74,2.309 -29.08,-8.121 -31.33,-22.672 -2.24,-14.558 8.27,-28.789 22.93,-31.09 14.67,-2.289 29.03,8.051 31.33,22.602 2.31,14.539 -8.2,28.859 -22.93,31.16" /></g></g></svg>