<svg width="25" height="24" viewBox="0 0 25 24" fill="none" xmlns="http://www.w3.org/2000/svg">
<path d="M15.5 22.75H9.5C7.43 22.75 5.75 21.07 5.75 19V13.98C5.75 13.78 5.82997 13.59 5.96997 13.45C6.10997 13.31 6.3 13.23 6.5 13.23L10.39 13.25C11.23 13.25 12.07 13.45 12.83 13.83C13.39 14.11 13.99 14.25 14.62 14.25H18.5C18.91 14.25 19.25 14.59 19.25 15V19C19.25 21.07 17.57 22.75 15.5 22.75ZM7.25 14.73V19C7.25 20.24 8.26 21.25 9.5 21.25H15.5C16.74 21.25 17.75 20.24 17.75 19V15.75H14.62C13.76 15.75 12.93 15.56 12.16 15.17C11.6 14.89 11 14.75 10.39 14.75L7.25 14.73Z" fill="#292D32"/>
<path d="M18.5 15.75H14.62C13.76 15.75 12.93 15.56 12.16 15.17C11.6 14.89 11 14.75 10.39 14.75L6.5 14.73C6.09 14.73 5.75 14.39 5.75 13.98V10.83C5.75 10.17 6.09 9.35 6.56 8.88L8.67999 6.75999C8.71999 6.71999 8.75 6.65 8.75 6.59V5C8.75 4.59 9.09 4.25 9.5 4.25H15.5C15.91 4.25 16.25 4.59 16.25 5V6.59C16.25 6.65 16.28 6.71999 16.32 6.75999L18.44 8.88C18.91 9.35 19.25 10.17 19.25 10.83V15C19.25 15.41 18.91 15.75 18.5 15.75ZM7.25 13.23L10.39 13.25C11.23 13.25 12.07 13.45 12.83 13.83C13.39 14.11 13.99 14.25 14.62 14.25H17.75V10.83C17.75 10.57 17.57 10.13 17.38 9.94L15.26 7.82001C14.94 7.50001 14.75 7.05 14.75 6.59V5.75H10.25V6.59C10.25 7.05 10.06 7.50001 9.73999 7.82001L7.62 9.94C7.43 10.13 7.25 10.57 7.25 10.83V13.23Z" fill="#292D32"/>
<path d="M18.5 16.75C18.09 16.75 17.75 16.41 17.75 16V15C17.75 14.59 18.09 14.25 18.5 14.25C18.91 14.25 19.25 14.59 19.25 15V16C19.25 16.41 18.91 16.75 18.5 16.75Z" fill="#292D32"/>
<path d="M6.5 15.73C6.09 15.73 5.75 15.39 5.75 14.98V13.98C5.75 13.57 6.09 13.23 6.5 13.23C6.91 13.23 7.25 13.57 7.25 13.98V14.98C7.25 15.39 6.91 15.73 6.5 15.73Z" fill="#292D32"/>
<path d="M15 5.75H10C8.76 5.75 7.75 4.74 7.75 3.5C7.75 2.26 8.76 1.25 10 1.25H15C16.24 1.25 17.25 2.26 17.25 3.5C17.25 4.74 16.24 5.75 15 5.75ZM10 2.75C9.59 2.75 9.25 3.09 9.25 3.5C9.25 3.91 9.59 4.25 10 4.25H15C15.41 4.25 15.75 3.91 15.75 3.5C15.75 3.09 15.41 2.75 15 2.75H10Z" fill="#292D32"/>
</svg>
