<svg width="30" height="30" viewBox="0 0 30 30" fill="none" xmlns="http://www.w3.org/2000/svg">
<path d="M0 14.4C0 7.61175 0 4.21766 2.10883 2.10883C4.21766 0 7.61175 0 14.4 0H15.6C22.3883 0 25.7823 0 27.8912 2.10883C30 4.21766 30 7.61175 30 14.4V15.6C30 22.3883 30 25.7823 27.8912 27.8912C25.7823 30 22.3883 30 15.6 30H14.4C7.61175 30 4.21766 30 2.10883 27.8912C0 25.7823 0 22.3883 0 15.6V14.4Z" fill="#80B540"/>
<path fill-rule="evenodd" clip-rule="evenodd" d="M15.264 6.69107C13.2492 6.62809 11.2801 7.28755 9.72631 8.54574C8.17247 9.80393 7.14063 11.5744 6.82438 13.5249C6.50813 15.4754 6.92921 17.472 8.00861 19.14L8.19735 19.4316L7.49686 22.618L10.6991 21.7356L11.0079 21.9022C12.7739 22.8546 14.8339 23.143 16.8014 22.7132C18.769 22.2834 20.5088 21.165 21.6946 19.5678C22.8803 17.9707 23.4305 16.0045 23.2418 14.0382C23.0531 12.0718 22.1386 10.2405 20.6698 8.88786C19.201 7.53518 17.2788 6.75406 15.264 6.69107ZM8.62938 7.24542C10.5064 5.72553 12.885 4.9289 15.3189 5.00499C17.7528 5.08108 20.0748 6.02466 21.8491 7.65871C23.6234 9.29275 24.7282 11.505 24.9561 13.8803C25.184 16.2556 24.5194 18.6307 23.087 20.5601C21.6547 22.4895 19.5529 23.8405 17.1761 24.3597C14.9164 24.8533 12.5557 24.5627 10.4953 23.5442L5.21185 25L6.3676 19.7428C5.20255 17.791 4.76063 15.5005 5.12385 13.2603C5.50588 10.904 6.75234 8.76532 8.62938 7.24542Z" fill="white"/>
<path d="M18.2814 16.1264C18.0946 16.0067 17.9078 15.9468 17.7211 16.1863L16.974 17.1443C16.7872 17.2641 16.6627 17.324 16.4136 17.2042C15.4798 16.7252 14.1724 16.1863 13.0517 14.39C12.9895 14.1505 13.114 14.0308 13.2385 13.911L13.7988 13.0728C13.9233 12.953 13.8611 12.8333 13.7988 12.7135L13.0517 10.9771C12.865 10.4981 12.6782 10.558 12.4914 10.558H11.9933C11.8688 10.558 11.6198 10.6178 11.3708 10.8573C10.0011 12.1746 10.5614 14.0308 11.5575 15.2283C11.7443 15.4678 12.9895 17.6234 15.6665 18.761C17.6588 19.5993 18.0946 19.4795 18.6549 19.3598C19.3398 19.2999 20.0246 18.761 20.3359 18.2221C20.3981 18.0425 20.7094 17.2641 20.4604 17.1443" fill="white"/>
</svg>
