<svg width="30" height="30" viewBox="0 0 30 30" fill="none" xmlns="http://www.w3.org/2000/svg">
<path d="M0 14.4C0 7.61175 0 4.21766 2.10883 2.10883C4.21766 0 7.61175 0 14.4 0H15.6C22.3883 0 25.7823 0 27.8912 2.10883C30 4.21766 30 7.61175 30 14.4V15.6C30 22.3883 30 25.7823 27.8912 27.8912C25.7823 30 22.3883 30 15.6 30H14.4C7.61175 30 4.21766 30 2.10883 27.8912C0 25.7823 0 22.3883 0 15.6V14.4Z" fill="#80B540"/>
<path d="M22.2989 8.62852L19.6198 22.1364C19.6198 22.1364 19.2451 23.0732 18.2147 22.6235L12.0321 17.8835L9.78401 16.797L5.99956 15.5229C5.99956 15.5229 5.41878 15.3169 5.36253 14.8672C5.3064 14.4176 6.01831 14.1741 6.01831 14.1741L21.0624 8.27251C21.0624 8.27251 22.2989 7.72923 22.2989 8.62852Z" fill="white"/>
<path d="M11.5571 21.9849C11.5571 21.9849 11.3766 21.968 11.1518 21.256C10.927 20.5441 9.78418 16.7971 9.78418 16.7971L18.8705 11.0268C18.8705 11.0268 19.3952 10.7083 19.3764 11.0268C19.3764 11.0268 19.4701 11.0829 19.1891 11.3452C18.908 11.6076 12.0511 17.7713 12.0511 17.7713" fill="#80B540"/>
<path d="M14.4029 19.701L11.9574 21.9306C11.9574 21.9306 11.7663 22.0757 11.5571 21.9848L12.0254 17.8433" fill="white"/>
</svg>
