<svg width="30" height="30" viewBox="0 0 30 30" fill="none" xmlns="http://www.w3.org/2000/svg">
<path d="M0 14.4C0 7.61175 0 4.21766 2.10883 2.10883C4.21766 0 7.61175 0 14.4 0H15.6C22.3883 0 25.7823 0 27.8912 2.10883C30 4.21766 30 7.61175 30 14.4V15.6C30 22.3883 30 25.7823 27.8912 27.8912C25.7823 30 22.3883 30 15.6 30H14.4C7.61175 30 4.21766 30 2.10883 27.8912C0 25.7823 0 22.3883 0 15.6V14.4Z" fill="#80B540"/>
<path fill-rule="evenodd" clip-rule="evenodd" d="M19.1879 6.86415C18.2807 6.43132 17.4538 6.19022 16.4307 6.06528C16.2284 6.04199 15.8567 6.01299 15.6038 6.00432C15.119 5.98976 15.0208 6.00717 14.8811 6.13217C14.6521 6.33258 14.6639 6.76249 14.9019 6.94554C15.0298 7.04138 15.128 7.0617 15.6931 7.09366C17.3646 7.1895 18.6406 7.63112 19.8749 8.53747C21.3561 9.62105 22.2841 11.1316 22.6351 13.0228C22.7243 13.505 22.7689 13.9088 22.7987 14.5334C22.8165 14.9401 22.8314 15.0302 22.8849 15.1347C23.0545 15.4513 23.5512 15.4979 23.7772 15.216C23.8963 15.0708 23.9111 14.9575 23.8902 14.4492C23.8338 12.9588 23.5037 11.6052 22.9236 10.4664C22.5072 9.6501 22.1146 9.12424 21.4067 8.42999C20.6512 7.69499 20.0802 7.29121 19.1879 6.86415ZM9.98836 6.55336C9.89614 6.49525 9.73554 6.41391 9.6314 6.37904C9.41722 6.30347 9.08119 6.27156 8.88786 6.31226C8.60531 6.37031 8.25133 6.57659 7.48395 7.13436C7.02297 7.47135 6.38942 8.07559 6.24069 8.3196C5.89571 8.89769 5.91652 9.38862 6.33583 10.5187C7.05564 12.4563 8.10862 14.3242 9.49162 16.1253C12.1388 19.5736 15.473 22.0835 19.6489 23.7655C20.1814 23.9804 20.3538 24.0153 20.7702 23.995C21.2759 23.9717 21.6595 23.8178 22.2008 23.4169C22.7987 22.9724 23.6553 21.9324 23.8754 21.3776C24.0836 20.8517 24.0301 20.3754 23.7208 20.0035C23.5452 19.7973 22.2484 18.7631 21.6417 18.3476C21.1807 18.0339 20.4669 17.6011 20.1396 17.4355C19.7084 17.2205 19.2802 17.1828 18.8607 17.3222C18.5305 17.4326 18.4205 17.5284 17.9387 18.1211C17.6888 18.4232 17.4598 18.6963 17.4301 18.7225C17.3973 18.7486 17.2932 18.8067 17.1951 18.8502C16.8055 19.0274 16.273 18.9199 15.4016 18.4958C14.7234 18.1675 14.1226 17.7521 13.4415 17.1421C12.8615 16.6249 12.2755 15.951 11.9484 15.4252C11.526 14.7483 11.2049 13.8681 11.2018 13.383C11.2018 13.1739 11.2881 12.8776 11.3953 12.7265C11.4368 12.6655 11.7015 12.436 11.9841 12.2123C12.6891 11.6574 12.8466 11.4831 12.9419 11.152C13.034 10.844 12.9359 10.4286 12.6414 9.86797C12.1269 8.88605 10.5535 6.91935 9.98836 6.55336ZM20.7554 10.5797C19.8393 9.24918 18.4414 8.42993 16.6359 8.17142C15.925 8.06685 15.6871 8.10459 15.5324 8.33992C15.3897 8.55197 15.4075 8.80762 15.5771 8.99644C15.6871 9.12138 15.8477 9.17949 16.1392 9.20267C16.9453 9.26659 17.8287 9.52516 18.4265 9.87374C19.1225 10.2776 19.6935 10.8586 20.0862 11.5616C20.4311 12.1774 20.6304 12.9705 20.6304 13.7229C20.6304 14.2109 20.6989 14.3911 20.9279 14.5043C21.0647 14.574 21.3116 14.5799 21.4275 14.5218C21.5346 14.4666 21.6595 14.3329 21.6982 14.2342C21.7398 14.1296 21.7398 13.4992 21.7012 13.1535C21.5911 12.2094 21.2699 11.3292 20.7554 10.5797ZM18.6882 11.0561C18.3046 10.7046 17.8554 10.4867 17.2695 10.3647C17.1475 10.3385 16.9185 10.3124 16.7638 10.3037C16.514 10.2892 16.4664 10.295 16.3533 10.3502C16.053 10.5013 15.9697 10.9108 16.1868 11.1636C16.3058 11.3001 16.4158 11.3408 16.7817 11.3843C17.561 11.4773 18.0219 11.762 18.2837 12.3111C18.4057 12.5696 18.4771 12.8485 18.5157 13.2465C18.5484 13.5457 18.593 13.6561 18.7358 13.7607C18.9321 13.9088 19.2563 13.903 19.4318 13.7461C19.6192 13.5776 19.6519 13.3743 19.5715 12.8572C19.4526 12.0641 19.1819 11.5121 18.6882 11.0561Z" fill="white"/>
</svg>
